%TF.GenerationSoftware,KiCad,Pcbnew,(5.99.0-11748-g24a41559ca)*%
%TF.CreationDate,2021-08-27T16:42:57+03:00*%
%TF.ProjectId,Flux Condenser,466c7578-2043-46f6-9e64-656e7365722e,3A*%
%TF.SameCoordinates,PX7bfa480PY6bc3e40*%
%TF.FileFunction,Copper,L1,Top*%
%TF.FilePolarity,Positive*%
%FSLAX46Y46*%
G04 Gerber Fmt 4.6, Leading zero omitted, Abs format (unit mm)*
G04 Created by KiCad (PCBNEW (5.99.0-11748-g24a41559ca)) date 2021-08-27 16:42:57*
%MOMM*%
%LPD*%
G01*
G04 APERTURE LIST*
G04 Aperture macros list*
%AMRoundRect*
0 Rectangle with rounded corners*
0 $1 Rounding radius*
0 $2 $3 $4 $5 $6 $7 $8 $9 X,Y pos of 4 corners*
0 Add a 4 corners polygon primitive as box body*
4,1,4,$2,$3,$4,$5,$6,$7,$8,$9,$2,$3,0*
0 Add four circle primitives for the rounded corners*
1,1,$1+$1,$2,$3*
1,1,$1+$1,$4,$5*
1,1,$1+$1,$6,$7*
1,1,$1+$1,$8,$9*
0 Add four rect primitives between the rounded corners*
20,1,$1+$1,$2,$3,$4,$5,0*
20,1,$1+$1,$4,$5,$6,$7,0*
20,1,$1+$1,$6,$7,$8,$9,0*
20,1,$1+$1,$8,$9,$2,$3,0*%
G04 Aperture macros list end*
%TA.AperFunction,SMDPad,CuDef*%
%ADD10RoundRect,0.150000X-0.212132X0.000000X0.000000X-0.212132X0.212132X0.000000X0.000000X0.212132X0*%
%TD*%
%TA.AperFunction,SMDPad,CuDef*%
%ADD11RoundRect,0.150000X-0.150000X-0.150000X0.150000X-0.150000X0.150000X0.150000X-0.150000X0.150000X0*%
%TD*%
%TA.AperFunction,SMDPad,CuDef*%
%ADD12RoundRect,0.150000X0.000000X-0.212132X0.212132X0.000000X0.000000X0.212132X-0.212132X0.000000X0*%
%TD*%
%TA.AperFunction,ComponentPad*%
%ADD13C,0.800000*%
%TD*%
%TA.AperFunction,ComponentPad*%
%ADD14C,5.000000*%
%TD*%
%TA.AperFunction,ViaPad*%
%ADD15C,0.500000*%
%TD*%
%TA.AperFunction,Conductor*%
%ADD16C,0.160000*%
%TD*%
G04 APERTURE END LIST*
D10*
%TO.P,D31,1,K*%
%TO.N,CLR*%
X20832053Y25067947D03*
%TO.P,D31,2,A*%
%TO.N,LED1*%
X21517947Y24382053D03*
%TD*%
%TO.P,D34,1,K*%
%TO.N,CLR*%
X17757053Y21992947D03*
%TO.P,D34,2,A*%
%TO.N,LED4*%
X18442947Y21307053D03*
%TD*%
D11*
%TO.P,D25,1,K*%
%TO.N,CLR*%
X12265000Y11100000D03*
%TO.P,D25,2,A*%
%TO.N,LED5*%
X13235000Y11100000D03*
%TD*%
D10*
%TO.P,D36,1,K*%
%TO.N,CLR*%
X15707053Y19942947D03*
%TO.P,D36,2,A*%
%TO.N,LED6*%
X16392947Y19257053D03*
%TD*%
D11*
%TO.P,D28,1,K*%
%TO.N,CLR*%
X12265000Y15450000D03*
%TO.P,D28,2,A*%
%TO.N,LED8*%
X13235000Y15450000D03*
%TD*%
%TO.P,D21,1,K*%
%TO.N,CLR*%
X12265000Y5300000D03*
%TO.P,D21,2,A*%
%TO.N,LED1*%
X13235000Y5300000D03*
%TD*%
D12*
%TO.P,D16,1,K*%
%TO.N,CLR*%
X9107053Y19257053D03*
%TO.P,D16,2,A*%
%TO.N,LED6*%
X9792947Y19942947D03*
%TD*%
D11*
%TO.P,D24,1,K*%
%TO.N,CLR*%
X12265000Y9650000D03*
%TO.P,D24,2,A*%
%TO.N,LED4*%
X13235000Y9650000D03*
%TD*%
D12*
%TO.P,D12,1,K*%
%TO.N,CLR*%
X5007053Y23357053D03*
%TO.P,D12,2,A*%
%TO.N,LED2*%
X5692947Y24042947D03*
%TD*%
%TO.P,D11,1,K*%
%TO.N,CLR*%
X3982053Y24382053D03*
%TO.P,D11,2,A*%
%TO.N,LED1*%
X4667947Y25067947D03*
%TD*%
%TO.P,D13,1,K*%
%TO.N,CLR*%
X6032053Y22332053D03*
%TO.P,D13,2,A*%
%TO.N,LED3*%
X6717947Y23017947D03*
%TD*%
D11*
%TO.P,D23,1,K*%
%TO.N,CLR*%
X12265000Y8200000D03*
%TO.P,D23,2,A*%
%TO.N,LED3*%
X13235000Y8200000D03*
%TD*%
D10*
%TO.P,D33,1,K*%
%TO.N,CLR*%
X18782053Y23017947D03*
%TO.P,D33,2,A*%
%TO.N,LED3*%
X19467947Y22332053D03*
%TD*%
%TO.P,D38,1,K*%
%TO.N,CLR*%
X13657053Y17892947D03*
%TO.P,D38,2,A*%
%TO.N,LED8*%
X14342947Y17207053D03*
%TD*%
%TO.P,D37,1,K*%
%TO.N,CLR*%
X14682053Y18917947D03*
%TO.P,D37,2,A*%
%TO.N,LED7*%
X15367947Y18232053D03*
%TD*%
D12*
%TO.P,D15,1,K*%
%TO.N,CLR*%
X8082053Y20282053D03*
%TO.P,D15,2,A*%
%TO.N,LED5*%
X8767947Y20967947D03*
%TD*%
D10*
%TO.P,D32,1,K*%
%TO.N,CLR*%
X19807053Y24042947D03*
%TO.P,D32,2,A*%
%TO.N,LED2*%
X20492947Y23357053D03*
%TD*%
D11*
%TO.P,D22,1,K*%
%TO.N,CLR*%
X12265000Y6750000D03*
%TO.P,D22,2,A*%
%TO.N,LED2*%
X13235000Y6750000D03*
%TD*%
D12*
%TO.P,D17,1,K*%
%TO.N,CLR*%
X10132053Y18232053D03*
%TO.P,D17,2,A*%
%TO.N,LED7*%
X10817947Y18917947D03*
%TD*%
%TO.P,D14,1,K*%
%TO.N,CLR*%
X7057053Y21307053D03*
%TO.P,D14,2,A*%
%TO.N,LED4*%
X7742947Y21992947D03*
%TD*%
D11*
%TO.P,D27,1,K*%
%TO.N,CLR*%
X12265000Y14000000D03*
%TO.P,D27,2,A*%
%TO.N,LED7*%
X13235000Y14000000D03*
%TD*%
D13*
%TO.P,REF\u002A\u002A,*%
%TO.N,*%
X14075825Y30674175D03*
X12750000Y33875000D03*
X11424175Y33325825D03*
X10875000Y32000000D03*
X11424175Y30674175D03*
X14075825Y33325825D03*
X14625000Y32000000D03*
D14*
X12750000Y32000000D03*
D13*
X12750000Y30125000D03*
%TD*%
D10*
%TO.P,D35,1,K*%
%TO.N,CLR*%
X16732053Y20967947D03*
%TO.P,D35,2,A*%
%TO.N,LED5*%
X17417947Y20282053D03*
%TD*%
D12*
%TO.P,D18,1,K*%
%TO.N,CLR*%
X11157053Y17207053D03*
%TO.P,D18,2,A*%
%TO.N,LED8*%
X11842947Y17892947D03*
%TD*%
D11*
%TO.P,D26,1,K*%
%TO.N,CLR*%
X12265000Y12550000D03*
%TO.P,D26,2,A*%
%TO.N,LED6*%
X13235000Y12550000D03*
%TD*%
D15*
%TO.N,CLR*%
X12530000Y16910000D03*
X18933307Y21842553D03*
X16883307Y19792553D03*
X15858307Y18767553D03*
X17908307Y20817553D03*
X20983307Y23892553D03*
X19958307Y22867553D03*
X14833307Y17742553D03*
%TO.N,LED1*%
X4830000Y24210000D03*
%TO.N,LED2*%
X5854106Y23185000D03*
%TO.N,LED3*%
X6874106Y22160000D03*
%TO.N,LED4*%
X7899106Y21135000D03*
%TO.N,LED5*%
X8924106Y20110000D03*
%TO.N,LED6*%
X9949106Y19080000D03*
%TO.N,LED7*%
X10984106Y18055000D03*
%TO.N,LED8*%
X12547053Y17892947D03*
%TD*%
D16*
%TO.N,CLR*%
X13657053Y17892947D02*
X14582053Y17892947D01*
X14582053Y17892947D02*
X14732447Y17742553D01*
X16732053Y20967947D02*
X17657053Y20967947D01*
X19857447Y22867553D02*
X19958307Y22867553D01*
X14682053Y18917947D02*
X15607053Y18917947D01*
X18832447Y21842553D02*
X18933307Y21842553D01*
X18682053Y21992947D02*
X18832447Y21842553D01*
X17757053Y21992947D02*
X18682053Y21992947D01*
X16782447Y19792553D02*
X16883307Y19792553D01*
X17807447Y20817553D02*
X17908307Y20817553D01*
X14732447Y17742553D02*
X14833307Y17742553D01*
X19707053Y23017947D02*
X19857447Y22867553D01*
X15757447Y18767553D02*
X15858307Y18767553D01*
X20732053Y24042947D02*
X20882447Y23892553D01*
X20882447Y23892553D02*
X20983307Y23892553D01*
X15707053Y19942947D02*
X16632053Y19942947D01*
X18782053Y23017947D02*
X19707053Y23017947D01*
X15607053Y18917947D02*
X15757447Y18767553D01*
X16632053Y19942947D02*
X16782447Y19792553D01*
X17657053Y20967947D02*
X17807447Y20817553D01*
X19807053Y24042947D02*
X20732053Y24042947D01*
%TO.N,LED1*%
X13775000Y6432062D02*
X13235000Y5892062D01*
X11184877Y21122600D02*
X11635637Y21122600D01*
X6554772Y23944120D02*
X7017750Y23944120D01*
X15053080Y11702662D02*
X14733080Y11382662D01*
X5085894Y24650000D02*
X5848892Y24650000D01*
X15691640Y14337482D02*
X15372600Y14018442D01*
X19401507Y20572767D02*
X19401507Y20120897D01*
X8876440Y22533560D02*
X9326440Y22533560D01*
X18696027Y19415417D02*
X18696027Y18963549D01*
X5085894Y24650000D02*
X5085894Y24465894D01*
X5085894Y24465894D02*
X4830000Y24210000D01*
X15473179Y21827680D02*
X16178661Y22533160D01*
X10031920Y21828080D02*
X10479397Y21828080D01*
X17776770Y23238640D02*
X18482251Y23944120D01*
X16178661Y22533160D02*
X16630528Y22533160D01*
X18919120Y23944120D02*
X19624600Y24649600D01*
X15691640Y15055420D02*
X15691640Y14337482D01*
X11635637Y21122600D02*
X12341119Y20417120D01*
X18696027Y18963549D02*
X17990547Y18258069D01*
X20225400Y24649600D02*
X20492947Y24382053D01*
X18482251Y23944120D02*
X18919120Y23944120D01*
X15372600Y14018442D02*
X15372600Y13020312D01*
X21517947Y24382053D02*
X21517947Y23592947D01*
X20492947Y24382053D02*
X21517947Y24382053D01*
X17285067Y17100717D02*
X17285067Y16648847D01*
X13775000Y7430192D02*
X13775000Y6432062D01*
X10479397Y21828080D02*
X11184877Y21122600D01*
X13235000Y5892062D02*
X13235000Y5300000D01*
X7722830Y23239040D02*
X8170960Y23239040D01*
X5848892Y24650000D02*
X6554772Y23944120D01*
X14094520Y7749712D02*
X13775000Y7430192D01*
X19624600Y24649600D02*
X20225400Y24649600D01*
X20106987Y21730117D02*
X20106987Y21278247D01*
X20106987Y21278247D02*
X19401507Y20572767D01*
X20812467Y22887467D02*
X20812467Y22435597D01*
X21517947Y23592947D02*
X20812467Y22887467D01*
X15021311Y21827680D02*
X15473179Y21827680D01*
X17990547Y18258069D02*
X17990547Y17806197D01*
X17990547Y17806197D02*
X17285067Y17100717D01*
X13158881Y20417120D02*
X13863963Y21122200D01*
X17336010Y23238640D02*
X17776770Y23238640D01*
X14413560Y10065012D02*
X14413560Y9066882D01*
X20812467Y22435597D02*
X20106987Y21730117D01*
X14315830Y21122200D02*
X15021311Y21827680D01*
X19401507Y20120897D02*
X18696027Y19415417D01*
X15053080Y12700792D02*
X15053080Y11702662D01*
X14413560Y9066882D02*
X14094520Y8747842D01*
X8170960Y23239040D02*
X8876440Y22533560D01*
X14733080Y10384532D02*
X14413560Y10065012D01*
X14094520Y8747842D02*
X14094520Y7749712D01*
X15372600Y13020312D02*
X15053080Y12700792D01*
X14733080Y11382662D02*
X14733080Y10384532D01*
X12341119Y20417120D02*
X13158881Y20417120D01*
X4667947Y25067947D02*
X5085894Y24650000D01*
X13863963Y21122200D02*
X14315830Y21122200D01*
X17285067Y16648847D02*
X15691640Y15055420D01*
X16630528Y22533160D02*
X17336010Y23238640D01*
X9326440Y22533560D02*
X10031920Y21828080D01*
X7017750Y23944120D02*
X7722830Y23239040D01*
%TO.N,LED2*%
X15372120Y14469832D02*
X15053080Y14150792D01*
X18614600Y23624600D02*
X19200400Y23624600D01*
X10347047Y21508560D02*
X11052527Y20803080D01*
X9895179Y21508560D02*
X10347047Y21508560D01*
X7590480Y22919520D02*
X8032349Y22919520D01*
X9189699Y22214040D02*
X9895179Y21508560D01*
X6111294Y23624600D02*
X6885400Y23624600D01*
X18376507Y19095899D02*
X17671027Y18390419D01*
X14094040Y9199232D02*
X13775000Y8880192D01*
X12208770Y20097600D02*
X13291230Y20097600D01*
X14413560Y10516882D02*
X14094040Y10197362D01*
X14413560Y11515012D02*
X14413560Y10516882D01*
X19787467Y21862467D02*
X19787467Y21410597D01*
X13996312Y20802680D02*
X14448180Y20802680D01*
X18376507Y19547767D02*
X18376507Y19095899D01*
X16762878Y22213640D02*
X17468359Y22919120D01*
X17468359Y22919120D02*
X17909120Y22919120D01*
X8032349Y22919520D02*
X8737830Y22214040D01*
X6110000Y23440894D02*
X5854106Y23185000D01*
X14448180Y20802680D02*
X15153660Y21508160D01*
X20492947Y22567947D02*
X19787467Y21862467D01*
X17671027Y18390419D02*
X17671027Y17938547D01*
X15372120Y15187770D02*
X15372120Y14469832D01*
X19467947Y23357053D02*
X20492947Y23357053D01*
X14733560Y11835012D02*
X14413560Y11515012D01*
X16965547Y17233067D02*
X16965547Y16781197D01*
X13775000Y7882062D02*
X13235000Y7342062D01*
X8737830Y22214040D02*
X9189699Y22214040D01*
X14094040Y10197362D02*
X14094040Y9199232D01*
X15153660Y21508160D02*
X15605528Y21508160D01*
X14733560Y12833142D02*
X14733560Y11835012D01*
X19200400Y23624600D02*
X19467947Y23357053D01*
X13775000Y8880192D02*
X13775000Y7882062D01*
X13235000Y7342062D02*
X13235000Y6750000D01*
X6885400Y23624600D02*
X7590480Y22919520D01*
X17909120Y22919120D02*
X18614600Y23624600D01*
X11052527Y20803080D02*
X11503288Y20803080D01*
X16311010Y22213640D02*
X16762878Y22213640D01*
X17671027Y17938547D02*
X16965547Y17233067D01*
X20492947Y23357053D02*
X20492947Y22567947D01*
X19081987Y20253247D02*
X18376507Y19547767D01*
X16965547Y16781197D02*
X15372120Y15187770D01*
X15053080Y14150792D02*
X15053080Y13152662D01*
X6110000Y23625000D02*
X6110000Y23440894D01*
X13291230Y20097600D02*
X13996312Y20802680D01*
X11503288Y20803080D02*
X12208770Y20097600D01*
X19787467Y21410597D02*
X19081987Y20705117D01*
X15605528Y21508160D02*
X16311010Y22213640D01*
X19081987Y20705117D02*
X19081987Y20253247D01*
X15053080Y13152662D02*
X14733560Y12833142D01*
X6111294Y23624600D02*
X5692947Y24042947D01*
%TO.N,LED3*%
X14128661Y20483160D02*
X14580528Y20483160D01*
X14733560Y13285012D02*
X14414040Y12965492D01*
X15052600Y14602182D02*
X14733560Y14283142D01*
X7130000Y22600000D02*
X7130000Y22415894D01*
X18442947Y22332053D02*
X19467947Y22332053D01*
X14094040Y11647362D02*
X14094040Y10649232D01*
X10214698Y21189040D02*
X10920180Y20483560D01*
X10920180Y20483560D02*
X11370939Y20483560D01*
X13774520Y10329712D02*
X13774520Y9331582D01*
X14414040Y11967362D02*
X14094040Y11647362D01*
X11370939Y20483560D02*
X12076421Y19778080D01*
X15286009Y21188640D02*
X15737878Y21188640D01*
X19467947Y21542947D02*
X18762467Y20837467D01*
X7130000Y22415894D02*
X6874106Y22160000D01*
X17351507Y18522769D02*
X17351507Y18070897D01*
X17600708Y22599600D02*
X18175400Y22599600D01*
X12076421Y19778080D02*
X13423579Y19778080D01*
X18175400Y22599600D02*
X18442947Y22332053D01*
X9762830Y21189040D02*
X10214698Y21189040D01*
X18762467Y20385597D02*
X18056987Y19680117D01*
X16646027Y16913547D02*
X15052600Y15320120D01*
X15052600Y15320120D02*
X15052600Y14602182D01*
X14580528Y20483160D02*
X15286009Y21188640D01*
X18056987Y19228249D02*
X17351507Y18522769D01*
X6717947Y23017947D02*
X7135894Y22600000D01*
X14094040Y10649232D02*
X13774520Y10329712D01*
X14414040Y12965492D02*
X14414040Y11967362D01*
X13235000Y8792062D02*
X13235000Y8200000D01*
X18056987Y19680117D02*
X18056987Y19228249D01*
X13774520Y9331582D02*
X13235000Y8792062D01*
X14733560Y14283142D02*
X14733560Y13285012D01*
X7135894Y22600000D02*
X7900000Y22600000D01*
X16646027Y17365417D02*
X16646027Y16913547D01*
X13423579Y19778080D02*
X14128661Y20483160D01*
X17351507Y18070897D02*
X16646027Y17365417D01*
X15737878Y21188640D02*
X16443359Y21894120D01*
X7900000Y22600000D02*
X8605480Y21894520D01*
X19467947Y22332053D02*
X19467947Y21542947D01*
X16443359Y21894120D02*
X16895228Y21894120D01*
X9057349Y21894520D02*
X9762830Y21189040D01*
X8605480Y21894520D02*
X9057349Y21894520D01*
X18762467Y20837467D02*
X18762467Y20385597D01*
X16895228Y21894120D02*
X17600708Y22599600D01*
%TO.N,LED4*%
X8160894Y21575000D02*
X8925000Y21575000D01*
X14733080Y15452470D02*
X14733080Y14734532D01*
X11944072Y19458560D02*
X13555928Y19458560D01*
X16326507Y17497767D02*
X16326507Y17045897D01*
X13774520Y10781582D02*
X13235000Y10242062D01*
X14261010Y20163640D02*
X14712878Y20163640D01*
X8925000Y21575000D02*
X9630480Y20869520D01*
X8155000Y21575000D02*
X8155000Y21390894D01*
X18442947Y20517947D02*
X17737467Y19812467D01*
X14094520Y12099712D02*
X13774520Y11779712D01*
X14094520Y13097842D02*
X14094520Y12099712D01*
X13235000Y10242062D02*
X13235000Y9650000D01*
X14414040Y13417362D02*
X14094520Y13097842D01*
X17150400Y21574600D02*
X17417947Y21307053D01*
X10082349Y20869520D02*
X10787830Y20164040D01*
X15418358Y20869120D02*
X15870228Y20869120D01*
X17675000Y19298130D02*
X17031987Y18655117D01*
X16326507Y17045897D02*
X14733080Y15452470D01*
X13774520Y11779712D02*
X13774520Y10781582D01*
X18442947Y21307053D02*
X18442947Y20517947D01*
X16575708Y21574600D02*
X17150400Y21574600D01*
X9630480Y20869520D02*
X10082349Y20869520D01*
X17737467Y19360598D02*
X17675000Y19298130D01*
X17031987Y18203247D02*
X16326507Y17497767D01*
X17737467Y19812467D02*
X17737467Y19360598D01*
X7742947Y21992947D02*
X8160894Y21575000D01*
X14712878Y20163640D02*
X15418358Y20869120D01*
X15870228Y20869120D02*
X16575708Y21574600D01*
X17031987Y18655117D02*
X17031987Y18203247D01*
X13555928Y19458560D02*
X14261010Y20163640D01*
X14733080Y14734532D02*
X14414040Y14415492D01*
X17417947Y21307053D02*
X18442947Y21307053D01*
X14414040Y14415492D02*
X14414040Y13417362D01*
X10787830Y20164040D02*
X11238590Y20164040D01*
X11238590Y20164040D02*
X11944072Y19458560D01*
X8155000Y21390894D02*
X7899106Y21135000D01*
%TO.N,LED5*%
X14094520Y13549712D02*
X13775000Y13230192D01*
X13775000Y12232062D02*
X13235000Y11692062D01*
X10655480Y19844520D02*
X11106241Y19844520D01*
X11106241Y19844520D02*
X11811722Y19139040D01*
X13235000Y11692062D02*
X13235000Y11100000D01*
X14413560Y14866882D02*
X14094520Y14547842D01*
X16006987Y17178247D02*
X14413560Y15584820D01*
X13775000Y13230192D02*
X13775000Y12232062D01*
X16712467Y18787467D02*
X16712467Y18335597D01*
X8767947Y20967947D02*
X9185894Y20550000D01*
X14413560Y15584820D02*
X14413560Y14866882D01*
X14845228Y19844120D02*
X15550708Y20549600D01*
X11811722Y19139040D02*
X13688278Y19139040D01*
X15550708Y20549600D02*
X16125400Y20549600D01*
X9180000Y20365894D02*
X8924106Y20110000D01*
X16712467Y18335597D02*
X16006987Y17630117D01*
X16006987Y17630117D02*
X16006987Y17178247D01*
X14094520Y14547842D02*
X14094520Y13549712D01*
X13688278Y19139040D02*
X14393359Y19844120D01*
X14393359Y19844120D02*
X14845228Y19844120D01*
X16125400Y20549600D02*
X16392947Y20282053D01*
X17417947Y19492947D02*
X16712467Y18787467D01*
X17417947Y20282053D02*
X17417947Y19492947D01*
X9180000Y20550000D02*
X9180000Y20365894D01*
X9950000Y20550000D02*
X10655480Y19844520D01*
X9185894Y20550000D02*
X9950000Y20550000D01*
X16392947Y20282053D02*
X17417947Y20282053D01*
%TO.N,LED6*%
X13820628Y18819520D02*
X14525708Y19524600D01*
X13775000Y14680192D02*
X13775000Y13682062D01*
X10205000Y19335894D02*
X9949106Y19080000D01*
X15100400Y19524600D02*
X15367947Y19257053D01*
X10973892Y19525000D02*
X11679372Y18819520D01*
X9792947Y19942947D02*
X10210894Y19525000D01*
X13235000Y13142062D02*
X13235000Y12550000D01*
X16392947Y19257053D02*
X16392947Y18467947D01*
X15687467Y17762467D02*
X15687467Y17310597D01*
X14094040Y14999232D02*
X13775000Y14680192D01*
X14525708Y19524600D02*
X15100400Y19524600D01*
X15687467Y17310597D02*
X14094040Y15717170D01*
X11679372Y18819520D02*
X13820628Y18819520D01*
X13775000Y13682062D02*
X13235000Y13142062D01*
X14094040Y15717170D02*
X14094040Y14999232D01*
X10210894Y19525000D02*
X10973892Y19525000D01*
X15367947Y19257053D02*
X16392947Y19257053D01*
X10205000Y19520000D02*
X10205000Y19335894D01*
X16392947Y18467947D02*
X15687467Y17762467D01*
%TO.N,LED7*%
X14075000Y18500000D02*
X14342947Y18232053D01*
X11235894Y18500000D02*
X14075000Y18500000D01*
X15367947Y17442947D02*
X13774520Y15849520D01*
X14342947Y18232053D02*
X15367947Y18232053D01*
X13774520Y15849520D02*
X13774520Y15131582D01*
X15367947Y18232053D02*
X15367947Y17442947D01*
X13235000Y14592062D02*
X13235000Y14000000D01*
X11240000Y18310894D02*
X10984106Y18055000D01*
X10817947Y18917947D02*
X11235894Y18500000D01*
X13774520Y15131582D02*
X13235000Y14592062D01*
X11240000Y18495000D02*
X11240000Y18310894D01*
%TO.N,LED8*%
X12547053Y17892947D02*
X13232947Y17207053D01*
X13392947Y17207053D02*
X14342947Y17207053D01*
X13232947Y17207053D02*
X13392947Y17207053D01*
X11842947Y17892947D02*
X12547053Y17892947D01*
X13235000Y17207053D02*
X13392947Y17207053D01*
X13235000Y15450000D02*
X13235000Y17207053D01*
%TD*%
%TA.AperFunction,Conductor*%
%TO.N,CLR*%
G36*
X12918527Y35189443D02*
G01*
X13237626Y35156449D01*
X13245665Y35155197D01*
X13559689Y35089556D01*
X13567557Y35087483D01*
X13873156Y34989895D01*
X13880769Y34987024D01*
X14154711Y34867265D01*
X14162268Y34862623D01*
X14169486Y34858998D01*
X14176349Y34853338D01*
X14184990Y34851213D01*
X14191155Y34848117D01*
X14196913Y34844918D01*
X19459831Y31626813D01*
X24409176Y28600448D01*
X24422260Y28590433D01*
X24430584Y28582557D01*
X24439059Y28579850D01*
X24446719Y28575326D01*
X24446661Y28575229D01*
X24453898Y28571706D01*
X24626223Y28454654D01*
X24634313Y28448354D01*
X24805139Y28296537D01*
X24812345Y28289243D01*
X24962074Y28116574D01*
X24968275Y28108407D01*
X25094374Y27917807D01*
X25099465Y27908907D01*
X25199820Y27703570D01*
X25203715Y27694085D01*
X25276630Y27477479D01*
X25279263Y27467569D01*
X25323507Y27243355D01*
X25324835Y27233188D01*
X25338327Y27025724D01*
X25337692Y27017851D01*
X25337894Y27017851D01*
X25337878Y27008956D01*
X25335885Y27000286D01*
X25337848Y26991611D01*
X25337848Y26991610D01*
X25338052Y26990710D01*
X25340000Y26973274D01*
X25340000Y2027148D01*
X25337990Y2009443D01*
X25337955Y2009290D01*
X25335885Y2000286D01*
X25337849Y1991608D01*
X25337833Y1982715D01*
X25337710Y1982715D01*
X25338341Y1974694D01*
X25324598Y1764998D01*
X25323250Y1754759D01*
X25284129Y1558083D01*
X25278315Y1528856D01*
X25275640Y1518874D01*
X25201601Y1300762D01*
X25197647Y1291215D01*
X25095776Y1084642D01*
X25090609Y1075693D01*
X24962648Y884187D01*
X24956357Y875989D01*
X24804490Y702817D01*
X24797183Y695510D01*
X24624011Y543643D01*
X24615813Y537352D01*
X24424307Y409391D01*
X24415358Y404224D01*
X24208785Y302353D01*
X24199238Y298399D01*
X23981126Y224360D01*
X23971143Y221685D01*
X23745241Y176750D01*
X23735010Y175403D01*
X23525716Y161685D01*
X23517852Y162318D01*
X23517852Y162105D01*
X23508959Y162121D01*
X23500286Y164115D01*
X23490984Y162010D01*
X23490710Y161948D01*
X23473274Y160000D01*
X2027148Y160000D01*
X2009443Y162010D01*
X2008958Y162121D01*
X2008957Y162121D01*
X2000286Y164115D01*
X1991608Y162151D01*
X1982715Y162167D01*
X1982715Y162290D01*
X1974694Y161659D01*
X1943471Y163705D01*
X1764992Y175403D01*
X1754759Y176750D01*
X1528857Y221685D01*
X1518874Y224360D01*
X1300762Y298399D01*
X1291215Y302353D01*
X1084642Y404224D01*
X1075693Y409391D01*
X884187Y537352D01*
X875989Y543643D01*
X702817Y695510D01*
X695510Y702817D01*
X543643Y875989D01*
X537352Y884187D01*
X409391Y1075693D01*
X404224Y1084642D01*
X302353Y1291215D01*
X298399Y1300762D01*
X224360Y1518874D01*
X221685Y1528856D01*
X215871Y1558083D01*
X176750Y1754759D01*
X175402Y1764997D01*
X161685Y1974282D01*
X162318Y1982148D01*
X162105Y1982148D01*
X162121Y1991041D01*
X164115Y1999714D01*
X161948Y2009291D01*
X160000Y2026726D01*
X160000Y5209972D01*
X11805001Y5209972D01*
X11805001Y5106289D01*
X11805278Y5101615D01*
X11807515Y5082804D01*
X11810624Y5071493D01*
X11852134Y4978039D01*
X11860258Y4966219D01*
X11931665Y4894936D01*
X11943496Y4886835D01*
X12037013Y4845492D01*
X12048354Y4842401D01*
X12066656Y4840267D01*
X12071242Y4840000D01*
X12170570Y4840000D01*
X12181241Y4843884D01*
X12184500Y4849528D01*
X12184500Y5205570D01*
X12180616Y5216241D01*
X12174972Y5219500D01*
X11818931Y5219500D01*
X11808260Y5215616D01*
X11805001Y5209972D01*
X160000Y5209972D01*
X160000Y5493758D01*
X11805000Y5493758D01*
X11805000Y5394430D01*
X11808884Y5383759D01*
X11814528Y5380500D01*
X12170570Y5380500D01*
X12181241Y5384384D01*
X12184500Y5390028D01*
X12184500Y5746069D01*
X12180616Y5756740D01*
X12174972Y5759999D01*
X12071289Y5759999D01*
X12066615Y5759722D01*
X12047804Y5757485D01*
X12036493Y5754376D01*
X11943039Y5712866D01*
X11931219Y5704742D01*
X11859936Y5633335D01*
X11851835Y5621504D01*
X11810492Y5527987D01*
X11807401Y5516646D01*
X11805267Y5498344D01*
X11805000Y5493758D01*
X160000Y5493758D01*
X160000Y6659972D01*
X11805001Y6659972D01*
X11805001Y6556289D01*
X11805278Y6551615D01*
X11807515Y6532804D01*
X11810624Y6521493D01*
X11852134Y6428039D01*
X11860258Y6416219D01*
X11931665Y6344936D01*
X11943496Y6336835D01*
X12037013Y6295492D01*
X12048354Y6292401D01*
X12066656Y6290267D01*
X12071242Y6290000D01*
X12170570Y6290000D01*
X12181241Y6293884D01*
X12184500Y6299528D01*
X12184500Y6655570D01*
X12180616Y6666241D01*
X12174972Y6669500D01*
X11818931Y6669500D01*
X11808260Y6665616D01*
X11805001Y6659972D01*
X160000Y6659972D01*
X160000Y6943758D01*
X11805000Y6943758D01*
X11805000Y6844430D01*
X11808884Y6833759D01*
X11814528Y6830500D01*
X12170570Y6830500D01*
X12181241Y6834384D01*
X12184500Y6840028D01*
X12184500Y7196069D01*
X12180616Y7206740D01*
X12174972Y7209999D01*
X12071289Y7209999D01*
X12066615Y7209722D01*
X12047804Y7207485D01*
X12036493Y7204376D01*
X11943039Y7162866D01*
X11931219Y7154742D01*
X11859936Y7083335D01*
X11851835Y7071504D01*
X11810492Y6977987D01*
X11807401Y6966646D01*
X11805267Y6948344D01*
X11805000Y6943758D01*
X160000Y6943758D01*
X160000Y8109972D01*
X11805001Y8109972D01*
X11805001Y8006289D01*
X11805278Y8001615D01*
X11807515Y7982804D01*
X11810624Y7971493D01*
X11852134Y7878039D01*
X11860258Y7866219D01*
X11931665Y7794936D01*
X11943496Y7786835D01*
X12037013Y7745492D01*
X12048354Y7742401D01*
X12066656Y7740267D01*
X12071242Y7740000D01*
X12170570Y7740000D01*
X12181241Y7743884D01*
X12184500Y7749528D01*
X12184500Y8105570D01*
X12180616Y8116241D01*
X12174972Y8119500D01*
X11818931Y8119500D01*
X11808260Y8115616D01*
X11805001Y8109972D01*
X160000Y8109972D01*
X160000Y8393758D01*
X11805000Y8393758D01*
X11805000Y8294430D01*
X11808884Y8283759D01*
X11814528Y8280500D01*
X12170570Y8280500D01*
X12181241Y8284384D01*
X12184500Y8290028D01*
X12184500Y8646069D01*
X12180616Y8656740D01*
X12174972Y8659999D01*
X12071289Y8659999D01*
X12066615Y8659722D01*
X12047804Y8657485D01*
X12036493Y8654376D01*
X11943039Y8612866D01*
X11931219Y8604742D01*
X11859936Y8533335D01*
X11851835Y8521504D01*
X11810492Y8427987D01*
X11807401Y8416646D01*
X11805267Y8398344D01*
X11805000Y8393758D01*
X160000Y8393758D01*
X160000Y9559972D01*
X11805001Y9559972D01*
X11805001Y9456289D01*
X11805278Y9451615D01*
X11807515Y9432804D01*
X11810624Y9421493D01*
X11852134Y9328039D01*
X11860258Y9316219D01*
X11931665Y9244936D01*
X11943496Y9236835D01*
X12037013Y9195492D01*
X12048354Y9192401D01*
X12066656Y9190267D01*
X12071242Y9190000D01*
X12170570Y9190000D01*
X12181241Y9193884D01*
X12184500Y9199528D01*
X12184500Y9555570D01*
X12180616Y9566241D01*
X12174972Y9569500D01*
X11818931Y9569500D01*
X11808260Y9565616D01*
X11805001Y9559972D01*
X160000Y9559972D01*
X160000Y9843758D01*
X11805000Y9843758D01*
X11805000Y9744430D01*
X11808884Y9733759D01*
X11814528Y9730500D01*
X12170570Y9730500D01*
X12181241Y9734384D01*
X12184500Y9740028D01*
X12184500Y10096069D01*
X12180616Y10106740D01*
X12174972Y10109999D01*
X12071289Y10109999D01*
X12066615Y10109722D01*
X12047804Y10107485D01*
X12036493Y10104376D01*
X11943039Y10062866D01*
X11931219Y10054742D01*
X11859936Y9983335D01*
X11851835Y9971504D01*
X11810492Y9877987D01*
X11807401Y9866646D01*
X11805267Y9848344D01*
X11805000Y9843758D01*
X160000Y9843758D01*
X160000Y11009972D01*
X11805001Y11009972D01*
X11805001Y10906289D01*
X11805278Y10901615D01*
X11807515Y10882804D01*
X11810624Y10871493D01*
X11852134Y10778039D01*
X11860258Y10766219D01*
X11931665Y10694936D01*
X11943496Y10686835D01*
X12037013Y10645492D01*
X12048354Y10642401D01*
X12066656Y10640267D01*
X12071242Y10640000D01*
X12170570Y10640000D01*
X12181241Y10643884D01*
X12184500Y10649528D01*
X12184500Y11005570D01*
X12180616Y11016241D01*
X12174972Y11019500D01*
X11818931Y11019500D01*
X11808260Y11015616D01*
X11805001Y11009972D01*
X160000Y11009972D01*
X160000Y11293758D01*
X11805000Y11293758D01*
X11805000Y11194430D01*
X11808884Y11183759D01*
X11814528Y11180500D01*
X12170570Y11180500D01*
X12181241Y11184384D01*
X12184500Y11190028D01*
X12184500Y11546069D01*
X12180616Y11556740D01*
X12174972Y11559999D01*
X12071289Y11559999D01*
X12066615Y11559722D01*
X12047804Y11557485D01*
X12036493Y11554376D01*
X11943039Y11512866D01*
X11931219Y11504742D01*
X11859936Y11433335D01*
X11851835Y11421504D01*
X11810492Y11327987D01*
X11807401Y11316646D01*
X11805267Y11298344D01*
X11805000Y11293758D01*
X160000Y11293758D01*
X160000Y12459972D01*
X11805001Y12459972D01*
X11805001Y12356289D01*
X11805278Y12351615D01*
X11807515Y12332804D01*
X11810624Y12321493D01*
X11852134Y12228039D01*
X11860258Y12216219D01*
X11931665Y12144936D01*
X11943496Y12136835D01*
X12037013Y12095492D01*
X12048354Y12092401D01*
X12066656Y12090267D01*
X12071242Y12090000D01*
X12170570Y12090000D01*
X12181241Y12093884D01*
X12184500Y12099528D01*
X12184500Y12455570D01*
X12180616Y12466241D01*
X12174972Y12469500D01*
X11818931Y12469500D01*
X11808260Y12465616D01*
X11805001Y12459972D01*
X160000Y12459972D01*
X160000Y12743758D01*
X11805000Y12743758D01*
X11805000Y12644430D01*
X11808884Y12633759D01*
X11814528Y12630500D01*
X12170570Y12630500D01*
X12181241Y12634384D01*
X12184500Y12640028D01*
X12184500Y12996069D01*
X12180616Y13006740D01*
X12174972Y13009999D01*
X12071289Y13009999D01*
X12066615Y13009722D01*
X12047804Y13007485D01*
X12036493Y13004376D01*
X11943039Y12962866D01*
X11931219Y12954742D01*
X11859936Y12883335D01*
X11851835Y12871504D01*
X11810492Y12777987D01*
X11807401Y12766646D01*
X11805267Y12748344D01*
X11805000Y12743758D01*
X160000Y12743758D01*
X160000Y13909972D01*
X11805001Y13909972D01*
X11805001Y13806289D01*
X11805278Y13801615D01*
X11807515Y13782804D01*
X11810624Y13771493D01*
X11852134Y13678039D01*
X11860258Y13666219D01*
X11931665Y13594936D01*
X11943496Y13586835D01*
X12037013Y13545492D01*
X12048354Y13542401D01*
X12066656Y13540267D01*
X12071242Y13540000D01*
X12170570Y13540000D01*
X12181241Y13543884D01*
X12184500Y13549528D01*
X12184500Y13905570D01*
X12180616Y13916241D01*
X12174972Y13919500D01*
X11818931Y13919500D01*
X11808260Y13915616D01*
X11805001Y13909972D01*
X160000Y13909972D01*
X160000Y14193758D01*
X11805000Y14193758D01*
X11805000Y14094430D01*
X11808884Y14083759D01*
X11814528Y14080500D01*
X12170570Y14080500D01*
X12181241Y14084384D01*
X12184500Y14090028D01*
X12184500Y14446069D01*
X12180616Y14456740D01*
X12174972Y14459999D01*
X12071289Y14459999D01*
X12066615Y14459722D01*
X12047804Y14457485D01*
X12036493Y14454376D01*
X11943039Y14412866D01*
X11931219Y14404742D01*
X11859936Y14333335D01*
X11851835Y14321504D01*
X11810492Y14227987D01*
X11807401Y14216646D01*
X11805267Y14198344D01*
X11805000Y14193758D01*
X160000Y14193758D01*
X160000Y15359972D01*
X11805001Y15359972D01*
X11805001Y15256289D01*
X11805278Y15251615D01*
X11807515Y15232804D01*
X11810624Y15221493D01*
X11852134Y15128039D01*
X11860258Y15116219D01*
X11931665Y15044936D01*
X11943496Y15036835D01*
X12037013Y14995492D01*
X12048354Y14992401D01*
X12066656Y14990267D01*
X12071242Y14990000D01*
X12170570Y14990000D01*
X12181241Y14993884D01*
X12184500Y14999528D01*
X12184500Y15355570D01*
X12180616Y15366241D01*
X12174972Y15369500D01*
X11818931Y15369500D01*
X11808260Y15365616D01*
X11805001Y15359972D01*
X160000Y15359972D01*
X160000Y15643758D01*
X11805000Y15643758D01*
X11805000Y15544430D01*
X11808884Y15533759D01*
X11814528Y15530500D01*
X12170570Y15530500D01*
X12181241Y15534384D01*
X12184500Y15540028D01*
X12184500Y15896069D01*
X12180616Y15906740D01*
X12174972Y15909999D01*
X12071289Y15909999D01*
X12066615Y15909722D01*
X12047804Y15907485D01*
X12036493Y15904376D01*
X11943039Y15862866D01*
X11931219Y15854742D01*
X11859936Y15783335D01*
X11851835Y15771504D01*
X11810492Y15677987D01*
X11807401Y15666646D01*
X11805267Y15648344D01*
X11805000Y15643758D01*
X160000Y15643758D01*
X160000Y16824419D01*
X10893757Y16824419D01*
X10895443Y16818125D01*
X10968768Y16744801D01*
X10972253Y16741706D01*
X10987144Y16729982D01*
X10997338Y16724182D01*
X11092775Y16687451D01*
X11106874Y16684837D01*
X11207768Y16684926D01*
X11221871Y16687565D01*
X11317227Y16724456D01*
X11327432Y16730289D01*
X11341887Y16741726D01*
X11345316Y16744778D01*
X11415549Y16815011D01*
X11420349Y16825305D01*
X11418663Y16831599D01*
X11166904Y17083358D01*
X11156610Y17088158D01*
X11150316Y17086472D01*
X10898557Y16834713D01*
X10893757Y16824419D01*
X160000Y16824419D01*
X160000Y17257232D01*
X10634837Y17257232D01*
X10634926Y17156338D01*
X10637565Y17142235D01*
X10674456Y17046879D01*
X10680289Y17036674D01*
X10691726Y17022219D01*
X10694778Y17018790D01*
X10765011Y16948557D01*
X10775305Y16943757D01*
X10781599Y16945443D01*
X11033358Y17197202D01*
X11038158Y17207496D01*
X11036472Y17213790D01*
X10784713Y17465549D01*
X10774419Y17470349D01*
X10768125Y17468663D01*
X10694801Y17395338D01*
X10691706Y17391853D01*
X10679982Y17376962D01*
X10674182Y17366768D01*
X10637451Y17271331D01*
X10634837Y17257232D01*
X160000Y17257232D01*
X160000Y17849419D01*
X9868757Y17849419D01*
X9870443Y17843125D01*
X9943768Y17769801D01*
X9947253Y17766706D01*
X9962144Y17754982D01*
X9972338Y17749182D01*
X10067775Y17712451D01*
X10081874Y17709837D01*
X10182768Y17709926D01*
X10196871Y17712565D01*
X10292227Y17749456D01*
X10302432Y17755289D01*
X10316887Y17766726D01*
X10320316Y17769778D01*
X10390549Y17840011D01*
X10395349Y17850305D01*
X10393663Y17856599D01*
X10141904Y18108358D01*
X10131610Y18113158D01*
X10125316Y18111472D01*
X9873557Y17859713D01*
X9868757Y17849419D01*
X160000Y17849419D01*
X160000Y18282232D01*
X9609837Y18282232D01*
X9609926Y18181338D01*
X9612565Y18167235D01*
X9649456Y18071879D01*
X9655289Y18061674D01*
X9666726Y18047219D01*
X9669778Y18043790D01*
X9740011Y17973557D01*
X9750305Y17968757D01*
X9756599Y17970443D01*
X10008358Y18222202D01*
X10013158Y18232496D01*
X10011472Y18238790D01*
X9759713Y18490549D01*
X9749419Y18495349D01*
X9743125Y18493663D01*
X9669801Y18420338D01*
X9666706Y18416853D01*
X9654982Y18401962D01*
X9649182Y18391768D01*
X9612451Y18296331D01*
X9609837Y18282232D01*
X160000Y18282232D01*
X160000Y18874419D01*
X8843757Y18874419D01*
X8845443Y18868125D01*
X8918768Y18794801D01*
X8922253Y18791706D01*
X8937144Y18779982D01*
X8947338Y18774182D01*
X9042775Y18737451D01*
X9056874Y18734837D01*
X9157768Y18734926D01*
X9171871Y18737565D01*
X9267227Y18774456D01*
X9277432Y18780289D01*
X9291887Y18791726D01*
X9295316Y18794778D01*
X9365549Y18865011D01*
X9370349Y18875305D01*
X9368663Y18881599D01*
X9116904Y19133358D01*
X9106610Y19138158D01*
X9100316Y19136472D01*
X8848557Y18884713D01*
X8843757Y18874419D01*
X160000Y18874419D01*
X160000Y19307232D01*
X8584837Y19307232D01*
X8584926Y19206338D01*
X8587565Y19192235D01*
X8624456Y19096879D01*
X8630289Y19086674D01*
X8641726Y19072219D01*
X8644778Y19068790D01*
X8715011Y18998557D01*
X8725305Y18993757D01*
X8731599Y18995443D01*
X8983358Y19247202D01*
X8988158Y19257496D01*
X8986472Y19263790D01*
X8734713Y19515549D01*
X8724419Y19520349D01*
X8718125Y19518663D01*
X8644801Y19445338D01*
X8641706Y19441853D01*
X8629982Y19426962D01*
X8624182Y19416768D01*
X8587451Y19321331D01*
X8584837Y19307232D01*
X160000Y19307232D01*
X160000Y19899419D01*
X7818757Y19899419D01*
X7820443Y19893125D01*
X7893768Y19819801D01*
X7897253Y19816706D01*
X7912144Y19804982D01*
X7922338Y19799182D01*
X8017775Y19762451D01*
X8031874Y19759837D01*
X8132768Y19759926D01*
X8146871Y19762565D01*
X8242227Y19799456D01*
X8252432Y19805289D01*
X8266887Y19816726D01*
X8270316Y19819778D01*
X8340549Y19890011D01*
X8345349Y19900305D01*
X8343663Y19906599D01*
X8091904Y20158358D01*
X8081610Y20163158D01*
X8075316Y20161472D01*
X7823557Y19909713D01*
X7818757Y19899419D01*
X160000Y19899419D01*
X160000Y20332232D01*
X7559837Y20332232D01*
X7559926Y20231338D01*
X7562565Y20217235D01*
X7599456Y20121879D01*
X7605289Y20111674D01*
X7616726Y20097219D01*
X7619778Y20093790D01*
X7690011Y20023557D01*
X7700305Y20018757D01*
X7706599Y20020443D01*
X7958358Y20272202D01*
X7963158Y20282496D01*
X7961472Y20288790D01*
X7709713Y20540549D01*
X7699419Y20545349D01*
X7693125Y20543663D01*
X7619801Y20470338D01*
X7616706Y20466853D01*
X7604982Y20451962D01*
X7599182Y20441768D01*
X7562451Y20346331D01*
X7559837Y20332232D01*
X160000Y20332232D01*
X160000Y20924419D01*
X6793757Y20924419D01*
X6795443Y20918125D01*
X6868768Y20844801D01*
X6872253Y20841706D01*
X6887144Y20829982D01*
X6897338Y20824182D01*
X6992775Y20787451D01*
X7006874Y20784837D01*
X7107768Y20784926D01*
X7121871Y20787565D01*
X7217227Y20824456D01*
X7227432Y20830289D01*
X7241887Y20841726D01*
X7245316Y20844778D01*
X7315549Y20915011D01*
X7320349Y20925305D01*
X7318663Y20931599D01*
X7066904Y21183358D01*
X7056610Y21188158D01*
X7050316Y21186472D01*
X6798557Y20934713D01*
X6793757Y20924419D01*
X160000Y20924419D01*
X160000Y21357232D01*
X6534837Y21357232D01*
X6534926Y21256338D01*
X6537565Y21242235D01*
X6574456Y21146879D01*
X6580289Y21136674D01*
X6591726Y21122219D01*
X6594778Y21118790D01*
X6665011Y21048557D01*
X6675305Y21043757D01*
X6681599Y21045443D01*
X6933358Y21297202D01*
X6938158Y21307496D01*
X6936472Y21313790D01*
X6684713Y21565549D01*
X6674419Y21570349D01*
X6668125Y21568663D01*
X6594801Y21495338D01*
X6591706Y21491853D01*
X6579982Y21476962D01*
X6574182Y21466768D01*
X6537451Y21371331D01*
X6534837Y21357232D01*
X160000Y21357232D01*
X160000Y21949419D01*
X5768757Y21949419D01*
X5770443Y21943125D01*
X5843768Y21869801D01*
X5847253Y21866706D01*
X5862144Y21854982D01*
X5872338Y21849182D01*
X5967775Y21812451D01*
X5981874Y21809837D01*
X6082768Y21809926D01*
X6096871Y21812565D01*
X6192227Y21849456D01*
X6202432Y21855289D01*
X6216887Y21866726D01*
X6220316Y21869778D01*
X6290549Y21940011D01*
X6295349Y21950305D01*
X6293663Y21956599D01*
X6041904Y22208358D01*
X6031610Y22213158D01*
X6025316Y22211472D01*
X5773557Y21959713D01*
X5768757Y21949419D01*
X160000Y21949419D01*
X160000Y22382232D01*
X5509837Y22382232D01*
X5509926Y22281338D01*
X5512565Y22267235D01*
X5549456Y22171879D01*
X5555289Y22161674D01*
X5566726Y22147219D01*
X5569778Y22143790D01*
X5640011Y22073557D01*
X5650305Y22068757D01*
X5656599Y22070443D01*
X5908358Y22322202D01*
X5913158Y22332496D01*
X5911472Y22338790D01*
X5659713Y22590549D01*
X5649419Y22595349D01*
X5643125Y22593663D01*
X5569801Y22520338D01*
X5566706Y22516853D01*
X5554982Y22501962D01*
X5549182Y22491768D01*
X5512451Y22396331D01*
X5509837Y22382232D01*
X160000Y22382232D01*
X160000Y22974419D01*
X4743757Y22974419D01*
X4745443Y22968125D01*
X4818768Y22894801D01*
X4822253Y22891706D01*
X4837144Y22879982D01*
X4847338Y22874182D01*
X4942775Y22837451D01*
X4956874Y22834837D01*
X5057768Y22834926D01*
X5071871Y22837565D01*
X5167227Y22874456D01*
X5177432Y22880289D01*
X5191887Y22891726D01*
X5195316Y22894778D01*
X5265549Y22965011D01*
X5270349Y22975305D01*
X5268663Y22981599D01*
X5016904Y23233358D01*
X5006610Y23238158D01*
X5000316Y23236472D01*
X4748557Y22984713D01*
X4743757Y22974419D01*
X160000Y22974419D01*
X160000Y23407232D01*
X4484837Y23407232D01*
X4484926Y23306338D01*
X4487565Y23292235D01*
X4524456Y23196879D01*
X4530289Y23186674D01*
X4541726Y23172219D01*
X4544778Y23168790D01*
X4615011Y23098557D01*
X4625305Y23093757D01*
X4631599Y23095443D01*
X4883358Y23347202D01*
X4888158Y23357496D01*
X4886472Y23363790D01*
X4634713Y23615549D01*
X4624419Y23620349D01*
X4618125Y23618663D01*
X4544801Y23545338D01*
X4541706Y23541853D01*
X4529982Y23526962D01*
X4524182Y23516768D01*
X4487451Y23421331D01*
X4484837Y23407232D01*
X160000Y23407232D01*
X160000Y23999419D01*
X3718757Y23999419D01*
X3720443Y23993125D01*
X3793768Y23919801D01*
X3797253Y23916706D01*
X3812144Y23904982D01*
X3822338Y23899182D01*
X3917775Y23862451D01*
X3931874Y23859837D01*
X4032768Y23859926D01*
X4046871Y23862565D01*
X4142227Y23899456D01*
X4152432Y23905289D01*
X4166887Y23916726D01*
X4170316Y23919778D01*
X4240549Y23990011D01*
X4245349Y24000305D01*
X4243663Y24006599D01*
X3991904Y24258358D01*
X3981610Y24263158D01*
X3975316Y24261472D01*
X3723557Y24009713D01*
X3718757Y23999419D01*
X160000Y23999419D01*
X160000Y24432232D01*
X3459837Y24432232D01*
X3459926Y24331338D01*
X3462565Y24317235D01*
X3499456Y24221879D01*
X3505289Y24211674D01*
X3516726Y24197219D01*
X3519778Y24193790D01*
X3590011Y24123557D01*
X3600305Y24118757D01*
X3606599Y24120443D01*
X3858358Y24372202D01*
X3863158Y24382496D01*
X3861472Y24388790D01*
X3609713Y24640549D01*
X3599419Y24645349D01*
X3593125Y24643663D01*
X3519801Y24570338D01*
X3516706Y24566853D01*
X3504982Y24551962D01*
X3499182Y24541768D01*
X3462451Y24446331D01*
X3459837Y24432232D01*
X160000Y24432232D01*
X160000Y24763801D01*
X3718757Y24763801D01*
X3720443Y24757507D01*
X4354393Y24123557D01*
X4380489Y24111388D01*
X4401682Y24109533D01*
X4438682Y24073801D01*
X4481705Y23989364D01*
X4493759Y23965706D01*
X4585706Y23873759D01*
X4591248Y23870935D01*
X4591251Y23870933D01*
X4696289Y23817413D01*
X4733144Y23777892D01*
X4733773Y23765895D01*
X4736315Y23766576D01*
X4745444Y23732506D01*
X5379393Y23098557D01*
X5406223Y23086046D01*
X5425889Y23084326D01*
X5462895Y23048591D01*
X5517865Y22940706D01*
X5609812Y22848759D01*
X5615351Y22845937D01*
X5615352Y22845936D01*
X5675373Y22815354D01*
X5720145Y22792542D01*
X5721118Y22792046D01*
X5757973Y22752524D01*
X5758585Y22740844D01*
X5761315Y22741575D01*
X5770443Y22707507D01*
X6404393Y22073557D01*
X6435352Y22059120D01*
X6446492Y22058146D01*
X6483495Y22022413D01*
X6537865Y21915706D01*
X6629812Y21823759D01*
X6635351Y21820937D01*
X6635352Y21820936D01*
X6745673Y21764725D01*
X6744267Y21761965D01*
X6777561Y21735935D01*
X6786860Y21714540D01*
X6795443Y21682507D01*
X7429393Y21048557D01*
X7460352Y21034120D01*
X7471492Y21033146D01*
X7508495Y20997413D01*
X7562865Y20890706D01*
X7654812Y20798759D01*
X7660351Y20795937D01*
X7660352Y20795936D01*
X7770673Y20739725D01*
X7769267Y20736965D01*
X7802561Y20710935D01*
X7811860Y20689540D01*
X7820443Y20657507D01*
X8454393Y20023557D01*
X8485352Y20009120D01*
X8496492Y20008146D01*
X8533495Y19972413D01*
X8587865Y19865706D01*
X8679812Y19773759D01*
X8685351Y19770937D01*
X8685352Y19770936D01*
X8795673Y19714725D01*
X8794267Y19711965D01*
X8827561Y19685935D01*
X8836860Y19664540D01*
X8845443Y19632507D01*
X9479393Y18998557D01*
X9512459Y18983138D01*
X9519254Y18982543D01*
X9556253Y18946811D01*
X9610039Y18841251D01*
X9610041Y18841248D01*
X9612865Y18835706D01*
X9704812Y18743759D01*
X9710351Y18740937D01*
X9710352Y18740936D01*
X9820673Y18684725D01*
X9819510Y18682442D01*
X9854021Y18655472D01*
X9863328Y18634062D01*
X9870443Y18607507D01*
X10504393Y17973557D01*
X10529200Y17961989D01*
X10553049Y17959903D01*
X10590053Y17924169D01*
X10642463Y17821309D01*
X10647865Y17810706D01*
X10739812Y17718759D01*
X10745351Y17715937D01*
X10745352Y17715936D01*
X10846431Y17664434D01*
X10883286Y17624912D01*
X10886874Y17614490D01*
X10895443Y17582507D01*
X11529393Y16948557D01*
X11539687Y16943757D01*
X11545981Y16945443D01*
X11619305Y17018768D01*
X11622400Y17022253D01*
X11634124Y17037144D01*
X11639924Y17047338D01*
X11676655Y17142775D01*
X11679269Y17156874D01*
X11679180Y17257768D01*
X11675200Y17279035D01*
X11676936Y17279360D01*
X11676028Y17324409D01*
X11709923Y17366496D01*
X11762941Y17376950D01*
X11777718Y17373006D01*
X11778575Y17372847D01*
X11785383Y17370227D01*
X11792674Y17370233D01*
X11792676Y17370233D01*
X11843290Y17370277D01*
X11901053Y17370327D01*
X11907850Y17372957D01*
X11907852Y17372957D01*
X12003395Y17409920D01*
X12008932Y17412062D01*
X12013587Y17415745D01*
X12013589Y17415746D01*
X12028094Y17427222D01*
X12028096Y17427224D01*
X12029886Y17428640D01*
X12031493Y17430247D01*
X12031511Y17430263D01*
X12174495Y17573248D01*
X12223471Y17596086D01*
X12275669Y17582100D01*
X12286217Y17573248D01*
X12302759Y17556706D01*
X12418620Y17497672D01*
X12424759Y17496700D01*
X12424761Y17496699D01*
X12540910Y17478303D01*
X12547053Y17477330D01*
X12553196Y17478303D01*
X12572472Y17481356D01*
X12625518Y17471045D01*
X12640692Y17459190D01*
X12971362Y17128519D01*
X12994199Y17079543D01*
X12994500Y17072658D01*
X12994500Y15950947D01*
X12976018Y15900167D01*
X12947568Y15878749D01*
X12912754Y15863286D01*
X12912751Y15863284D01*
X12906085Y15860323D01*
X12824365Y15778461D01*
X12821416Y15771791D01*
X12817295Y15765772D01*
X12815928Y15766708D01*
X12784498Y15733988D01*
X12730770Y15728196D01*
X12685890Y15758295D01*
X12678603Y15770888D01*
X12669742Y15783781D01*
X12598335Y15855064D01*
X12586504Y15863165D01*
X12492987Y15904508D01*
X12481646Y15907599D01*
X12463344Y15909733D01*
X12458758Y15910000D01*
X12359430Y15910000D01*
X12348759Y15906116D01*
X12345500Y15900472D01*
X12345500Y15003931D01*
X12349384Y14993260D01*
X12355028Y14990001D01*
X12458711Y14990001D01*
X12463385Y14990278D01*
X12482196Y14992515D01*
X12493507Y14995624D01*
X12586961Y15037134D01*
X12598781Y15045258D01*
X12670064Y15116665D01*
X12682286Y15134515D01*
X12683743Y15133517D01*
X12714954Y15166012D01*
X12768682Y15171804D01*
X12813563Y15141706D01*
X12821224Y15128467D01*
X12821716Y15127751D01*
X12824677Y15121085D01*
X12906539Y15039365D01*
X13012332Y14992594D01*
X13018231Y14991906D01*
X13018232Y14991906D01*
X13036604Y14989764D01*
X13036609Y14989764D01*
X13038871Y14989500D01*
X13101597Y14989500D01*
X13152377Y14971018D01*
X13179397Y14924218D01*
X13170013Y14871000D01*
X13157458Y14854639D01*
X13070860Y14768041D01*
X13067860Y14765193D01*
X13036085Y14736583D01*
X13032708Y14728997D01*
X13032706Y14728995D01*
X13025521Y14712856D01*
X13019606Y14701962D01*
X13009981Y14687141D01*
X13009980Y14687138D01*
X13005458Y14680175D01*
X13004159Y14671974D01*
X13004041Y14671230D01*
X12998185Y14651459D01*
X12994500Y14643182D01*
X12994500Y14617205D01*
X12993527Y14604847D01*
X12989464Y14579194D01*
X12991614Y14571172D01*
X12991808Y14570446D01*
X12994500Y14549999D01*
X12994500Y14500947D01*
X12976018Y14450167D01*
X12947568Y14428749D01*
X12912754Y14413286D01*
X12912751Y14413284D01*
X12906085Y14410323D01*
X12824365Y14328461D01*
X12821416Y14321791D01*
X12817295Y14315772D01*
X12815928Y14316708D01*
X12784498Y14283988D01*
X12730770Y14278196D01*
X12685890Y14308295D01*
X12678603Y14320888D01*
X12669742Y14333781D01*
X12598335Y14405064D01*
X12586504Y14413165D01*
X12492987Y14454508D01*
X12481646Y14457599D01*
X12463344Y14459733D01*
X12458758Y14460000D01*
X12359430Y14460000D01*
X12348759Y14456116D01*
X12345500Y14450472D01*
X12345500Y13553931D01*
X12349384Y13543260D01*
X12355028Y13540001D01*
X12458711Y13540001D01*
X12463385Y13540278D01*
X12482196Y13542515D01*
X12493507Y13545624D01*
X12586961Y13587134D01*
X12598781Y13595258D01*
X12670064Y13666665D01*
X12682286Y13684515D01*
X12683743Y13683517D01*
X12714954Y13716012D01*
X12768682Y13721804D01*
X12813563Y13691706D01*
X12821224Y13678467D01*
X12821716Y13677751D01*
X12824677Y13671085D01*
X12906539Y13589365D01*
X13012332Y13542594D01*
X13018231Y13541906D01*
X13018232Y13541906D01*
X13036604Y13539764D01*
X13036609Y13539764D01*
X13038871Y13539500D01*
X13101598Y13539500D01*
X13152378Y13521018D01*
X13179398Y13474218D01*
X13170014Y13421000D01*
X13157459Y13404639D01*
X13070870Y13318050D01*
X13067870Y13315202D01*
X13036085Y13286583D01*
X13032708Y13278997D01*
X13032706Y13278995D01*
X13025521Y13262856D01*
X13019606Y13251962D01*
X13009981Y13237141D01*
X13009980Y13237138D01*
X13005458Y13230175D01*
X13004159Y13221974D01*
X13004041Y13221230D01*
X12998185Y13201459D01*
X12994500Y13193182D01*
X12994500Y13167205D01*
X12993527Y13154847D01*
X12989464Y13129194D01*
X12991614Y13121172D01*
X12991808Y13120446D01*
X12994500Y13099999D01*
X12994500Y13050947D01*
X12976018Y13000167D01*
X12947568Y12978749D01*
X12912754Y12963286D01*
X12912751Y12963284D01*
X12906085Y12960323D01*
X12824365Y12878461D01*
X12821416Y12871791D01*
X12817295Y12865772D01*
X12815928Y12866708D01*
X12784498Y12833988D01*
X12730770Y12828196D01*
X12685890Y12858295D01*
X12678603Y12870888D01*
X12669742Y12883781D01*
X12598335Y12955064D01*
X12586504Y12963165D01*
X12492987Y13004508D01*
X12481646Y13007599D01*
X12463344Y13009733D01*
X12458758Y13010000D01*
X12359430Y13010000D01*
X12348759Y13006116D01*
X12345500Y13000472D01*
X12345500Y12103931D01*
X12349384Y12093260D01*
X12355028Y12090001D01*
X12458711Y12090001D01*
X12463385Y12090278D01*
X12482196Y12092515D01*
X12493507Y12095624D01*
X12586961Y12137134D01*
X12598781Y12145258D01*
X12670064Y12216665D01*
X12682286Y12234515D01*
X12683743Y12233517D01*
X12714954Y12266012D01*
X12768682Y12271804D01*
X12813563Y12241706D01*
X12821224Y12228467D01*
X12821716Y12227751D01*
X12824677Y12221085D01*
X12906539Y12139365D01*
X13012332Y12092594D01*
X13018231Y12091906D01*
X13018232Y12091906D01*
X13036604Y12089764D01*
X13036609Y12089764D01*
X13038871Y12089500D01*
X13101598Y12089500D01*
X13152378Y12071018D01*
X13179398Y12024218D01*
X13170014Y11971000D01*
X13157459Y11954639D01*
X13070870Y11868050D01*
X13067870Y11865202D01*
X13036085Y11836583D01*
X13032708Y11828997D01*
X13032706Y11828995D01*
X13025521Y11812856D01*
X13019606Y11801962D01*
X13009981Y11787141D01*
X13009980Y11787138D01*
X13005458Y11780175D01*
X13004159Y11771974D01*
X13004041Y11771230D01*
X12998185Y11751459D01*
X12994500Y11743182D01*
X12994500Y11717205D01*
X12993527Y11704847D01*
X12989464Y11679194D01*
X12991614Y11671172D01*
X12991808Y11670446D01*
X12994500Y11649999D01*
X12994500Y11600947D01*
X12976018Y11550167D01*
X12947568Y11528749D01*
X12912754Y11513286D01*
X12912751Y11513284D01*
X12906085Y11510323D01*
X12824365Y11428461D01*
X12821416Y11421791D01*
X12817295Y11415772D01*
X12815928Y11416708D01*
X12784498Y11383988D01*
X12730770Y11378196D01*
X12685890Y11408295D01*
X12678603Y11420888D01*
X12669742Y11433781D01*
X12598335Y11505064D01*
X12586504Y11513165D01*
X12492987Y11554508D01*
X12481646Y11557599D01*
X12463344Y11559733D01*
X12458758Y11560000D01*
X12359430Y11560000D01*
X12348759Y11556116D01*
X12345500Y11550472D01*
X12345500Y10653931D01*
X12349384Y10643260D01*
X12355028Y10640001D01*
X12458711Y10640001D01*
X12463385Y10640278D01*
X12482196Y10642515D01*
X12493507Y10645624D01*
X12586961Y10687134D01*
X12598781Y10695258D01*
X12670064Y10766665D01*
X12682286Y10784515D01*
X12683743Y10783517D01*
X12714954Y10816012D01*
X12768682Y10821804D01*
X12813563Y10791706D01*
X12821224Y10778467D01*
X12821716Y10777751D01*
X12824677Y10771085D01*
X12906539Y10689365D01*
X13012332Y10642594D01*
X13018231Y10641906D01*
X13018232Y10641906D01*
X13036604Y10639764D01*
X13036609Y10639764D01*
X13038871Y10639500D01*
X13101597Y10639500D01*
X13152377Y10621018D01*
X13179397Y10574218D01*
X13170013Y10521000D01*
X13157458Y10504639D01*
X13070860Y10418041D01*
X13067860Y10415193D01*
X13036085Y10386583D01*
X13032708Y10378997D01*
X13032706Y10378995D01*
X13025521Y10362856D01*
X13019606Y10351962D01*
X13009981Y10337141D01*
X13009980Y10337138D01*
X13005458Y10330175D01*
X13004159Y10321974D01*
X13004041Y10321230D01*
X12998185Y10301459D01*
X12994500Y10293182D01*
X12994500Y10267205D01*
X12993527Y10254847D01*
X12989464Y10229194D01*
X12991614Y10221172D01*
X12991808Y10220446D01*
X12994500Y10199999D01*
X12994500Y10150947D01*
X12976018Y10100167D01*
X12947568Y10078749D01*
X12912754Y10063286D01*
X12912751Y10063284D01*
X12906085Y10060323D01*
X12900931Y10055160D01*
X12834420Y9988533D01*
X12824365Y9978461D01*
X12821416Y9971791D01*
X12817295Y9965772D01*
X12815928Y9966708D01*
X12784498Y9933988D01*
X12730770Y9928196D01*
X12685890Y9958295D01*
X12678603Y9970888D01*
X12669742Y9983781D01*
X12598335Y10055064D01*
X12586504Y10063165D01*
X12492987Y10104508D01*
X12481646Y10107599D01*
X12463344Y10109733D01*
X12458758Y10110000D01*
X12359430Y10110000D01*
X12348759Y10106116D01*
X12345500Y10100472D01*
X12345500Y9203931D01*
X12349384Y9193260D01*
X12355028Y9190001D01*
X12458711Y9190001D01*
X12463385Y9190278D01*
X12482196Y9192515D01*
X12493507Y9195624D01*
X12586961Y9237134D01*
X12598781Y9245258D01*
X12670064Y9316665D01*
X12682286Y9334515D01*
X12683743Y9333517D01*
X12714954Y9366012D01*
X12768682Y9371804D01*
X12813563Y9341706D01*
X12821224Y9328467D01*
X12821716Y9327751D01*
X12824677Y9321085D01*
X12906539Y9239365D01*
X13012332Y9192594D01*
X13018231Y9191906D01*
X13018232Y9191906D01*
X13036604Y9189764D01*
X13036609Y9189764D01*
X13038871Y9189500D01*
X13101597Y9189500D01*
X13152377Y9171018D01*
X13179397Y9124218D01*
X13170013Y9071000D01*
X13157458Y9054639D01*
X13070860Y8968041D01*
X13067860Y8965193D01*
X13036085Y8936583D01*
X13032708Y8928997D01*
X13032706Y8928995D01*
X13025521Y8912856D01*
X13019606Y8901962D01*
X13009981Y8887141D01*
X13009980Y8887138D01*
X13005458Y8880175D01*
X13004159Y8871974D01*
X13004041Y8871230D01*
X12998185Y8851459D01*
X12994500Y8843182D01*
X12994500Y8817205D01*
X12993527Y8804847D01*
X12989464Y8779194D01*
X12991614Y8771172D01*
X12991808Y8770446D01*
X12994500Y8749999D01*
X12994500Y8700947D01*
X12976018Y8650167D01*
X12947568Y8628749D01*
X12912754Y8613286D01*
X12912751Y8613284D01*
X12906085Y8610323D01*
X12824365Y8528461D01*
X12821416Y8521791D01*
X12817295Y8515772D01*
X12815928Y8516708D01*
X12784498Y8483988D01*
X12730770Y8478196D01*
X12685890Y8508295D01*
X12678603Y8520888D01*
X12669742Y8533781D01*
X12598335Y8605064D01*
X12586504Y8613165D01*
X12492987Y8654508D01*
X12481646Y8657599D01*
X12463344Y8659733D01*
X12458758Y8660000D01*
X12359430Y8660000D01*
X12348759Y8656116D01*
X12345500Y8650472D01*
X12345500Y7753931D01*
X12349384Y7743260D01*
X12355028Y7740001D01*
X12458711Y7740001D01*
X12463385Y7740278D01*
X12482196Y7742515D01*
X12493507Y7745624D01*
X12586961Y7787134D01*
X12598781Y7795258D01*
X12670064Y7866665D01*
X12682286Y7884515D01*
X12683743Y7883517D01*
X12714954Y7916012D01*
X12768682Y7921804D01*
X12813563Y7891706D01*
X12821224Y7878467D01*
X12821716Y7877751D01*
X12824677Y7871085D01*
X12906539Y7789365D01*
X12913208Y7786417D01*
X12913209Y7786416D01*
X12947340Y7771327D01*
X13012332Y7742594D01*
X13018231Y7741906D01*
X13018232Y7741906D01*
X13036604Y7739764D01*
X13036609Y7739764D01*
X13038871Y7739500D01*
X13101598Y7739500D01*
X13152378Y7721018D01*
X13179398Y7674218D01*
X13170014Y7621000D01*
X13157459Y7604639D01*
X13070870Y7518050D01*
X13067870Y7515202D01*
X13036085Y7486583D01*
X13032708Y7478997D01*
X13032706Y7478995D01*
X13025521Y7462856D01*
X13019606Y7451962D01*
X13009981Y7437141D01*
X13009980Y7437138D01*
X13005458Y7430175D01*
X13004159Y7421974D01*
X13004041Y7421230D01*
X12998185Y7401459D01*
X12994500Y7393182D01*
X12994500Y7367205D01*
X12993527Y7354847D01*
X12992543Y7348631D01*
X12989464Y7329194D01*
X12991614Y7321172D01*
X12991808Y7320446D01*
X12994500Y7299999D01*
X12994500Y7250947D01*
X12976018Y7200167D01*
X12947568Y7178749D01*
X12912754Y7163286D01*
X12912751Y7163284D01*
X12906085Y7160323D01*
X12824365Y7078461D01*
X12821416Y7071791D01*
X12817295Y7065772D01*
X12815928Y7066708D01*
X12784498Y7033988D01*
X12730770Y7028196D01*
X12685890Y7058295D01*
X12678603Y7070888D01*
X12669742Y7083781D01*
X12598335Y7155064D01*
X12586504Y7163165D01*
X12492987Y7204508D01*
X12481646Y7207599D01*
X12463344Y7209733D01*
X12458758Y7210000D01*
X12359430Y7210000D01*
X12348759Y7206116D01*
X12345500Y7200472D01*
X12345500Y6303931D01*
X12349384Y6293260D01*
X12355028Y6290001D01*
X12458711Y6290001D01*
X12463385Y6290278D01*
X12482196Y6292515D01*
X12493507Y6295624D01*
X12586961Y6337134D01*
X12598781Y6345258D01*
X12670064Y6416665D01*
X12682286Y6434515D01*
X12683743Y6433517D01*
X12714954Y6466012D01*
X12768682Y6471804D01*
X12813563Y6441706D01*
X12821224Y6428467D01*
X12821716Y6427751D01*
X12824677Y6421085D01*
X12906539Y6339365D01*
X13012332Y6292594D01*
X13018231Y6291906D01*
X13018232Y6291906D01*
X13036604Y6289764D01*
X13036609Y6289764D01*
X13038871Y6289500D01*
X13101598Y6289500D01*
X13152378Y6271018D01*
X13179398Y6224218D01*
X13170014Y6171000D01*
X13157459Y6154639D01*
X13070870Y6068050D01*
X13067870Y6065202D01*
X13036085Y6036583D01*
X13032708Y6028997D01*
X13032706Y6028995D01*
X13025521Y6012856D01*
X13019606Y6001962D01*
X13009981Y5987141D01*
X13009980Y5987138D01*
X13005458Y5980175D01*
X13004159Y5971974D01*
X13004041Y5971230D01*
X12998185Y5951459D01*
X12994500Y5943182D01*
X12994500Y5917205D01*
X12993527Y5904847D01*
X12989464Y5879194D01*
X12991614Y5871172D01*
X12991808Y5870446D01*
X12994500Y5849999D01*
X12994500Y5800947D01*
X12976018Y5750167D01*
X12947568Y5728749D01*
X12912754Y5713286D01*
X12912751Y5713284D01*
X12906085Y5710323D01*
X12824365Y5628461D01*
X12821416Y5621791D01*
X12817295Y5615772D01*
X12815928Y5616708D01*
X12784498Y5583988D01*
X12730770Y5578196D01*
X12685890Y5608295D01*
X12678603Y5620888D01*
X12669742Y5633781D01*
X12598335Y5705064D01*
X12586504Y5713165D01*
X12492987Y5754508D01*
X12481646Y5757599D01*
X12463344Y5759733D01*
X12458758Y5760000D01*
X12359430Y5760000D01*
X12348759Y5756116D01*
X12345500Y5750472D01*
X12345500Y4853931D01*
X12349384Y4843260D01*
X12355028Y4840001D01*
X12458711Y4840001D01*
X12463385Y4840278D01*
X12482196Y4842515D01*
X12493507Y4845624D01*
X12586961Y4887134D01*
X12598781Y4895258D01*
X12670064Y4966665D01*
X12682286Y4984515D01*
X12683743Y4983517D01*
X12714954Y5016012D01*
X12768682Y5021804D01*
X12813563Y4991706D01*
X12821224Y4978467D01*
X12821716Y4977751D01*
X12824677Y4971085D01*
X12906539Y4889365D01*
X13012332Y4842594D01*
X13018231Y4841906D01*
X13018232Y4841906D01*
X13036604Y4839764D01*
X13036609Y4839764D01*
X13038871Y4839500D01*
X13232585Y4839500D01*
X13431128Y4839501D01*
X13458204Y4842722D01*
X13494131Y4858680D01*
X13557248Y4886715D01*
X13557251Y4886717D01*
X13563915Y4889677D01*
X13645635Y4971539D01*
X13650931Y4983517D01*
X13690004Y5071899D01*
X13692406Y5077332D01*
X13695500Y5103871D01*
X13695499Y5496128D01*
X13692278Y5523204D01*
X13665279Y5583988D01*
X13648285Y5622248D01*
X13648283Y5622251D01*
X13645323Y5628915D01*
X13563461Y5710635D01*
X13556792Y5713583D01*
X13556791Y5713584D01*
X13551159Y5716074D01*
X13512190Y5753513D01*
X13506403Y5807242D01*
X13527244Y5844188D01*
X13939130Y6256074D01*
X13942130Y6258922D01*
X13967743Y6281984D01*
X13973915Y6287541D01*
X13977292Y6295127D01*
X13977294Y6295129D01*
X13984479Y6311268D01*
X13990394Y6322162D01*
X14000019Y6336983D01*
X14000020Y6336986D01*
X14004542Y6343949D01*
X14005959Y6352894D01*
X14011815Y6372665D01*
X14015500Y6380942D01*
X14015500Y6406919D01*
X14016473Y6419277D01*
X14019237Y6436726D01*
X14019237Y6436728D01*
X14020536Y6444930D01*
X14018192Y6453678D01*
X14015500Y6474125D01*
X14015500Y7297851D01*
X14033982Y7348631D01*
X14038639Y7353713D01*
X14142100Y7457173D01*
X14258669Y7573742D01*
X14261669Y7576589D01*
X14287264Y7599635D01*
X14293435Y7605191D01*
X14304001Y7628922D01*
X14309916Y7639815D01*
X14319541Y7654636D01*
X14319542Y7654637D01*
X14324063Y7661600D01*
X14325480Y7670548D01*
X14331336Y7690316D01*
X14331641Y7691002D01*
X14331641Y7691003D01*
X14335020Y7698592D01*
X14335020Y7724568D01*
X14335993Y7736926D01*
X14338757Y7754376D01*
X14338757Y7754378D01*
X14340056Y7762580D01*
X14337712Y7771329D01*
X14335020Y7791774D01*
X14335020Y8615501D01*
X14353502Y8666281D01*
X14358159Y8671363D01*
X14457243Y8770446D01*
X14577709Y8890912D01*
X14580709Y8893759D01*
X14595607Y8907173D01*
X14612475Y8922361D01*
X14623041Y8946092D01*
X14628956Y8956985D01*
X14638581Y8971806D01*
X14638582Y8971807D01*
X14643103Y8978770D01*
X14644520Y8987718D01*
X14650376Y9007486D01*
X14650681Y9008172D01*
X14650681Y9008173D01*
X14654060Y9015762D01*
X14654060Y9041738D01*
X14655033Y9054096D01*
X14657797Y9071546D01*
X14657797Y9071548D01*
X14659096Y9079750D01*
X14656752Y9088499D01*
X14654060Y9108944D01*
X14654060Y9932671D01*
X14672542Y9983451D01*
X14677199Y9988533D01*
X14784736Y10096069D01*
X14897229Y10208562D01*
X14900229Y10211409D01*
X14925824Y10234455D01*
X14931995Y10240011D01*
X14942561Y10263742D01*
X14948476Y10274635D01*
X14958101Y10289456D01*
X14958102Y10289457D01*
X14962623Y10296420D01*
X14964040Y10305368D01*
X14969896Y10325136D01*
X14970201Y10325822D01*
X14970201Y10325823D01*
X14973580Y10333412D01*
X14973580Y10359388D01*
X14974553Y10371746D01*
X14977317Y10389196D01*
X14977317Y10389198D01*
X14978616Y10397400D01*
X14976272Y10406149D01*
X14973580Y10426594D01*
X14973580Y11250322D01*
X14992062Y11301102D01*
X14996719Y11306183D01*
X15217210Y11526674D01*
X15220210Y11529522D01*
X15220224Y11529534D01*
X15251995Y11558141D01*
X15255372Y11565727D01*
X15255374Y11565729D01*
X15262559Y11581868D01*
X15268474Y11592762D01*
X15278099Y11607583D01*
X15278100Y11607586D01*
X15282622Y11614549D01*
X15284039Y11623494D01*
X15289895Y11643265D01*
X15293580Y11651542D01*
X15293580Y11677519D01*
X15294553Y11689877D01*
X15297317Y11707326D01*
X15297317Y11707328D01*
X15298616Y11715530D01*
X15296272Y11724278D01*
X15293580Y11744725D01*
X15293580Y12568451D01*
X15312062Y12619231D01*
X15316719Y12624313D01*
X15536749Y12844342D01*
X15539749Y12847189D01*
X15540386Y12847762D01*
X15571515Y12875791D01*
X15582081Y12899522D01*
X15587996Y12910415D01*
X15597621Y12925236D01*
X15597622Y12925237D01*
X15602143Y12932200D01*
X15603560Y12941148D01*
X15609416Y12960916D01*
X15609721Y12961602D01*
X15609721Y12961603D01*
X15613100Y12969192D01*
X15613100Y12995168D01*
X15614073Y13007526D01*
X15616837Y13024976D01*
X15616837Y13024978D01*
X15618136Y13033180D01*
X15615792Y13041929D01*
X15613100Y13062374D01*
X15613100Y13886101D01*
X15631582Y13936881D01*
X15636239Y13941963D01*
X15855789Y14161512D01*
X15858789Y14164359D01*
X15884384Y14187405D01*
X15890555Y14192961D01*
X15899581Y14213233D01*
X15901121Y14216692D01*
X15907036Y14227585D01*
X15916661Y14242406D01*
X15916662Y14242407D01*
X15921183Y14249370D01*
X15922600Y14258318D01*
X15928456Y14278086D01*
X15928761Y14278772D01*
X15928761Y14278773D01*
X15932140Y14286362D01*
X15932140Y14312338D01*
X15933113Y14324696D01*
X15935877Y14342146D01*
X15935877Y14342148D01*
X15937176Y14350350D01*
X15934832Y14359099D01*
X15932140Y14379544D01*
X15932140Y14923080D01*
X15950622Y14973860D01*
X15955279Y14978941D01*
X17449197Y16472859D01*
X17452197Y16475707D01*
X17477810Y16498769D01*
X17483982Y16504326D01*
X17487359Y16511912D01*
X17487361Y16511914D01*
X17494546Y16528053D01*
X17500461Y16538947D01*
X17510086Y16553768D01*
X17510087Y16553771D01*
X17514609Y16560734D01*
X17516026Y16569679D01*
X17521882Y16589450D01*
X17525567Y16597727D01*
X17525567Y16623704D01*
X17526540Y16636062D01*
X17529304Y16653511D01*
X17529304Y16653513D01*
X17530603Y16661715D01*
X17528259Y16670463D01*
X17525567Y16690910D01*
X17525567Y16968377D01*
X17544049Y17019157D01*
X17548706Y17024238D01*
X18154677Y17630209D01*
X18157677Y17633057D01*
X18183290Y17656119D01*
X18189462Y17661676D01*
X18192839Y17669262D01*
X18192841Y17669264D01*
X18200026Y17685403D01*
X18205941Y17696297D01*
X18215567Y17711119D01*
X18215569Y17711124D01*
X18220089Y17718084D01*
X18221387Y17726282D01*
X18221388Y17726284D01*
X18221505Y17727025D01*
X18227365Y17746808D01*
X18227670Y17747492D01*
X18227670Y17747493D01*
X18231047Y17755077D01*
X18231047Y17781060D01*
X18232020Y17793418D01*
X18234783Y17810861D01*
X18234783Y17810863D01*
X18236082Y17819065D01*
X18233739Y17827809D01*
X18231047Y17848256D01*
X18231047Y18125729D01*
X18249529Y18176509D01*
X18254186Y18181590D01*
X18860157Y18787561D01*
X18863157Y18790409D01*
X18888770Y18813471D01*
X18894942Y18819028D01*
X18898319Y18826614D01*
X18898321Y18826616D01*
X18905506Y18842755D01*
X18911421Y18853649D01*
X18921047Y18868471D01*
X18921049Y18868476D01*
X18925569Y18875436D01*
X18926867Y18883634D01*
X18926868Y18883636D01*
X18926985Y18884377D01*
X18932845Y18904160D01*
X18933150Y18904844D01*
X18933150Y18904845D01*
X18936527Y18912429D01*
X18936527Y18938412D01*
X18937500Y18950770D01*
X18940263Y18968213D01*
X18940263Y18968215D01*
X18941562Y18976417D01*
X18939219Y18985161D01*
X18936527Y19005608D01*
X18936527Y19283077D01*
X18955009Y19333857D01*
X18959666Y19338938D01*
X19565637Y19944909D01*
X19568637Y19947757D01*
X19594250Y19970819D01*
X19600422Y19976376D01*
X19603799Y19983962D01*
X19603801Y19983964D01*
X19610986Y20000103D01*
X19616901Y20010997D01*
X19626527Y20025819D01*
X19626529Y20025824D01*
X19631049Y20032784D01*
X19632347Y20040982D01*
X19632348Y20040984D01*
X19632465Y20041725D01*
X19638325Y20061508D01*
X19638630Y20062192D01*
X19638630Y20062193D01*
X19642007Y20069777D01*
X19642007Y20095760D01*
X19642980Y20108118D01*
X19645743Y20125561D01*
X19645743Y20125563D01*
X19647042Y20133765D01*
X19644699Y20142509D01*
X19642007Y20162956D01*
X19642007Y20440427D01*
X19660489Y20491207D01*
X19665146Y20496288D01*
X20271117Y21102259D01*
X20274117Y21105107D01*
X20299730Y21128169D01*
X20305902Y21133726D01*
X20309279Y21141312D01*
X20309281Y21141314D01*
X20316466Y21157453D01*
X20322381Y21168347D01*
X20332007Y21183169D01*
X20332009Y21183174D01*
X20336529Y21190134D01*
X20337827Y21198332D01*
X20337828Y21198334D01*
X20337945Y21199075D01*
X20343805Y21218858D01*
X20344110Y21219542D01*
X20344110Y21219543D01*
X20347487Y21227127D01*
X20347487Y21253110D01*
X20348460Y21265468D01*
X20351223Y21282911D01*
X20351223Y21282913D01*
X20352522Y21291115D01*
X20350179Y21299859D01*
X20347487Y21320306D01*
X20347487Y21597777D01*
X20365969Y21648557D01*
X20370626Y21653638D01*
X20976597Y22259609D01*
X20979597Y22262457D01*
X21005210Y22285519D01*
X21011382Y22291076D01*
X21014759Y22298662D01*
X21014761Y22298664D01*
X21021946Y22314803D01*
X21027861Y22325697D01*
X21037487Y22340519D01*
X21037489Y22340524D01*
X21042009Y22347484D01*
X21043307Y22355682D01*
X21043308Y22355684D01*
X21043425Y22356425D01*
X21049285Y22376208D01*
X21049590Y22376892D01*
X21049590Y22376893D01*
X21052967Y22384477D01*
X21052967Y22410460D01*
X21053940Y22422818D01*
X21056703Y22440261D01*
X21056703Y22440263D01*
X21058002Y22448465D01*
X21055659Y22457209D01*
X21052967Y22477656D01*
X21052967Y22755127D01*
X21071449Y22805907D01*
X21076106Y22810988D01*
X21682077Y23416959D01*
X21685077Y23419807D01*
X21692490Y23426482D01*
X21716862Y23448426D01*
X21720239Y23456012D01*
X21720241Y23456014D01*
X21727426Y23472153D01*
X21733341Y23483047D01*
X21742967Y23497869D01*
X21742969Y23497874D01*
X21747489Y23504834D01*
X21748787Y23513032D01*
X21748788Y23513034D01*
X21748905Y23513775D01*
X21754765Y23533558D01*
X21755070Y23534242D01*
X21755070Y23534243D01*
X21758447Y23541827D01*
X21758447Y23567810D01*
X21759420Y23580168D01*
X21762183Y23597611D01*
X21762183Y23597613D01*
X21763482Y23605815D01*
X21761139Y23614559D01*
X21758447Y23635006D01*
X21758447Y23938584D01*
X21776929Y23989364D01*
X21781585Y23994445D01*
X21980605Y24193467D01*
X21982252Y24195114D01*
X21999120Y24216538D01*
X22040667Y24324489D01*
X22040567Y24440159D01*
X21998832Y24548038D01*
X21983947Y24566853D01*
X21983672Y24567200D01*
X21983670Y24567202D01*
X21982254Y24568992D01*
X21704886Y24846358D01*
X21683462Y24863226D01*
X21575511Y24904773D01*
X21568220Y24904767D01*
X21568218Y24904767D01*
X21517604Y24904723D01*
X21459841Y24904673D01*
X21453041Y24902042D01*
X21445867Y24900700D01*
X21445562Y24902328D01*
X21400199Y24901418D01*
X21358115Y24935317D01*
X21347666Y24988336D01*
X21351418Y25002388D01*
X21354269Y25017768D01*
X21354180Y25118662D01*
X21351541Y25132765D01*
X21314650Y25228121D01*
X21308817Y25238326D01*
X21297380Y25252781D01*
X21294328Y25256210D01*
X21224095Y25326443D01*
X21213801Y25331243D01*
X21207507Y25329557D01*
X20887914Y25009964D01*
X20838938Y24987126D01*
X20786740Y25001112D01*
X20776192Y25009964D01*
X20459713Y25326443D01*
X20449419Y25331243D01*
X20443125Y25329557D01*
X20369801Y25256232D01*
X20366706Y25252747D01*
X20354982Y25237856D01*
X20349182Y25227662D01*
X20312451Y25132225D01*
X20309837Y25118126D01*
X20309926Y25017232D01*
X20312565Y25003131D01*
X20314082Y24999209D01*
X20315166Y24945181D01*
X20281267Y24903096D01*
X20228045Y24892679D01*
X20220736Y24893837D01*
X20220734Y24893837D01*
X20212532Y24895136D01*
X20203913Y24892826D01*
X20203784Y24892792D01*
X20183337Y24890100D01*
X19632967Y24890100D01*
X19628832Y24890208D01*
X19594425Y24892012D01*
X19594423Y24892012D01*
X19586137Y24892446D01*
X19578390Y24889472D01*
X19578389Y24889472D01*
X19561887Y24883137D01*
X19549999Y24879616D01*
X19532714Y24875942D01*
X19524594Y24874216D01*
X19517263Y24868890D01*
X19499145Y24859052D01*
X19490688Y24855806D01*
X19472324Y24837442D01*
X19462904Y24829395D01*
X19441881Y24814121D01*
X19437349Y24806271D01*
X19424796Y24789914D01*
X18842641Y24207759D01*
X18793665Y24184921D01*
X18786780Y24184620D01*
X18490618Y24184620D01*
X18486483Y24184728D01*
X18452078Y24186532D01*
X18452076Y24186532D01*
X18443789Y24186966D01*
X18436039Y24183991D01*
X18436038Y24183991D01*
X18419539Y24177658D01*
X18407654Y24174137D01*
X18399387Y24172380D01*
X18382245Y24168736D01*
X18375527Y24163855D01*
X18375525Y24163854D01*
X18374915Y24163411D01*
X18356795Y24153573D01*
X18356094Y24153304D01*
X18356093Y24153303D01*
X18348339Y24150327D01*
X18329971Y24131959D01*
X18320545Y24123908D01*
X18299532Y24108641D01*
X18295381Y24101451D01*
X18295002Y24100795D01*
X18282447Y24084435D01*
X17700291Y23502279D01*
X17651315Y23479441D01*
X17644430Y23479140D01*
X17344385Y23479140D01*
X17340250Y23479248D01*
X17305837Y23481052D01*
X17305835Y23481052D01*
X17297548Y23481486D01*
X17289798Y23478511D01*
X17273296Y23472177D01*
X17261410Y23468656D01*
X17261062Y23468582D01*
X17236004Y23463256D01*
X17228679Y23457934D01*
X17210556Y23448093D01*
X17202099Y23444847D01*
X17183734Y23426482D01*
X17174314Y23418435D01*
X17153291Y23403161D01*
X17148762Y23395316D01*
X17136208Y23378956D01*
X16554048Y22796798D01*
X16505072Y22773961D01*
X16498187Y22773660D01*
X16187036Y22773660D01*
X16182901Y22773768D01*
X16148488Y22775572D01*
X16148486Y22775572D01*
X16140199Y22776006D01*
X16132449Y22773031D01*
X16115947Y22766697D01*
X16104061Y22763176D01*
X16103713Y22763102D01*
X16078655Y22757776D01*
X16071330Y22752454D01*
X16053207Y22742613D01*
X16044750Y22739367D01*
X16026385Y22721002D01*
X16016965Y22712955D01*
X15995942Y22697681D01*
X15991413Y22689836D01*
X15978859Y22673476D01*
X15396699Y22091318D01*
X15347723Y22068481D01*
X15340838Y22068180D01*
X15029678Y22068180D01*
X15025543Y22068288D01*
X14991138Y22070092D01*
X14991136Y22070092D01*
X14982849Y22070526D01*
X14975099Y22067551D01*
X14975098Y22067551D01*
X14958599Y22061218D01*
X14946714Y22057697D01*
X14938447Y22055940D01*
X14921305Y22052296D01*
X14914587Y22047415D01*
X14914585Y22047414D01*
X14913975Y22046971D01*
X14895855Y22037133D01*
X14895154Y22036864D01*
X14895153Y22036863D01*
X14887399Y22033887D01*
X14869031Y22015519D01*
X14859605Y22007468D01*
X14838592Y21992201D01*
X14834441Y21985011D01*
X14834062Y21984355D01*
X14821507Y21967995D01*
X14239351Y21385839D01*
X14190375Y21363001D01*
X14183490Y21362700D01*
X13872330Y21362700D01*
X13868195Y21362808D01*
X13833790Y21364612D01*
X13833788Y21364612D01*
X13825501Y21365046D01*
X13817751Y21362071D01*
X13817750Y21362071D01*
X13801251Y21355738D01*
X13789366Y21352217D01*
X13781099Y21350460D01*
X13763957Y21346816D01*
X13757239Y21341935D01*
X13757237Y21341934D01*
X13756627Y21341491D01*
X13738507Y21331653D01*
X13737806Y21331384D01*
X13737805Y21331383D01*
X13730051Y21328407D01*
X13711683Y21310039D01*
X13702257Y21301988D01*
X13681244Y21286721D01*
X13677092Y21279529D01*
X13676717Y21278879D01*
X13664162Y21262518D01*
X13082402Y20680759D01*
X13033426Y20657921D01*
X13026541Y20657620D01*
X12473459Y20657620D01*
X12422679Y20676102D01*
X12417598Y20680759D01*
X11811616Y21286740D01*
X11808768Y21289740D01*
X11794451Y21305641D01*
X11780158Y21321515D01*
X11756427Y21332081D01*
X11745534Y21337996D01*
X11730713Y21347621D01*
X11730712Y21347622D01*
X11723749Y21352143D01*
X11715548Y21353442D01*
X11714802Y21353560D01*
X11695033Y21359416D01*
X11694347Y21359721D01*
X11694346Y21359721D01*
X11686757Y21363100D01*
X11660781Y21363100D01*
X11648423Y21364073D01*
X11630973Y21366837D01*
X11630971Y21366837D01*
X11622769Y21368136D01*
X11614150Y21365826D01*
X11614021Y21365792D01*
X11593574Y21363100D01*
X11317217Y21363100D01*
X11266437Y21381582D01*
X11261356Y21386239D01*
X10655385Y21992210D01*
X10652537Y21995210D01*
X10629475Y22020823D01*
X10629476Y22020823D01*
X10623918Y22026995D01*
X10616332Y22030372D01*
X10616330Y22030374D01*
X10600191Y22037559D01*
X10589297Y22043474D01*
X10574476Y22053099D01*
X10574473Y22053100D01*
X10567510Y22057622D01*
X10558880Y22058989D01*
X10558565Y22059039D01*
X10538794Y22064895D01*
X10530517Y22068580D01*
X10504540Y22068580D01*
X10492182Y22069553D01*
X10474733Y22072317D01*
X10474731Y22072317D01*
X10466529Y22073616D01*
X10457910Y22071306D01*
X10457781Y22071272D01*
X10437334Y22068580D01*
X10164260Y22068580D01*
X10113480Y22087062D01*
X10108399Y22091719D01*
X9502428Y22697690D01*
X9499580Y22700690D01*
X9476518Y22726303D01*
X9476519Y22726303D01*
X9470961Y22732475D01*
X9463375Y22735852D01*
X9463373Y22735854D01*
X9447234Y22743039D01*
X9436340Y22748954D01*
X9421519Y22758579D01*
X9421516Y22758580D01*
X9414553Y22763102D01*
X9405923Y22764469D01*
X9405608Y22764519D01*
X9385837Y22770375D01*
X9377560Y22774060D01*
X9351583Y22774060D01*
X9339225Y22775033D01*
X9321776Y22777797D01*
X9321774Y22777797D01*
X9313572Y22779096D01*
X9304953Y22776786D01*
X9304824Y22776752D01*
X9284377Y22774060D01*
X9008780Y22774060D01*
X8958000Y22792542D01*
X8952919Y22797199D01*
X8346948Y23403170D01*
X8344100Y23406170D01*
X8321038Y23431783D01*
X8321039Y23431783D01*
X8315481Y23437955D01*
X8307895Y23441332D01*
X8307893Y23441334D01*
X8291754Y23448519D01*
X8280860Y23454434D01*
X8266039Y23464059D01*
X8266036Y23464060D01*
X8259073Y23468582D01*
X8250443Y23469949D01*
X8250128Y23469999D01*
X8230357Y23475855D01*
X8222080Y23479540D01*
X8196103Y23479540D01*
X8183745Y23480513D01*
X8166296Y23483277D01*
X8166294Y23483277D01*
X8158092Y23484576D01*
X8149473Y23482266D01*
X8149344Y23482232D01*
X8128897Y23479540D01*
X7855171Y23479540D01*
X7804391Y23498022D01*
X7799310Y23502679D01*
X7193738Y24108250D01*
X7190890Y24111250D01*
X7167828Y24136863D01*
X7167829Y24136863D01*
X7162271Y24143035D01*
X7154685Y24146412D01*
X7154683Y24146414D01*
X7138544Y24153599D01*
X7127650Y24159514D01*
X7112829Y24169139D01*
X7112826Y24169140D01*
X7105863Y24173662D01*
X7097413Y24175001D01*
X7096918Y24175079D01*
X7077147Y24180935D01*
X7068870Y24184620D01*
X7042893Y24184620D01*
X7030535Y24185593D01*
X7013086Y24188357D01*
X7013084Y24188357D01*
X7004882Y24189656D01*
X6996263Y24187346D01*
X6996134Y24187312D01*
X6975687Y24184620D01*
X6687112Y24184620D01*
X6636332Y24203102D01*
X6631251Y24207759D01*
X6024880Y24814130D01*
X6022032Y24817130D01*
X5998970Y24842743D01*
X5998971Y24842743D01*
X5993413Y24848915D01*
X5985827Y24852292D01*
X5985825Y24852294D01*
X5969686Y24859479D01*
X5958792Y24865394D01*
X5943971Y24875019D01*
X5943968Y24875020D01*
X5937005Y24879542D01*
X5928375Y24880909D01*
X5928060Y24880959D01*
X5908289Y24886815D01*
X5900012Y24890500D01*
X5874035Y24890500D01*
X5861677Y24891473D01*
X5844228Y24894237D01*
X5844226Y24894237D01*
X5836024Y24895536D01*
X5827405Y24893226D01*
X5827276Y24893192D01*
X5806829Y24890500D01*
X5259581Y24890500D01*
X5208801Y24908982D01*
X5181781Y24955782D01*
X5185853Y24997874D01*
X5190667Y25010383D01*
X5190567Y25126053D01*
X5148832Y25233932D01*
X5133947Y25252747D01*
X5133672Y25253094D01*
X5133670Y25253096D01*
X5132254Y25254886D01*
X4937444Y25449695D01*
X20568757Y25449695D01*
X20570443Y25443401D01*
X20822202Y25191642D01*
X20832496Y25186842D01*
X20838790Y25188528D01*
X21090549Y25440287D01*
X21095349Y25450581D01*
X21093663Y25456875D01*
X21020338Y25530199D01*
X21016853Y25533294D01*
X21001962Y25545018D01*
X20991768Y25550818D01*
X20896331Y25587549D01*
X20882232Y25590163D01*
X20781338Y25590074D01*
X20767235Y25587435D01*
X20671879Y25550544D01*
X20661674Y25544711D01*
X20647219Y25533274D01*
X20643790Y25530222D01*
X20573557Y25459989D01*
X20568757Y25449695D01*
X4937444Y25449695D01*
X4854886Y25532252D01*
X4833462Y25549120D01*
X4725511Y25590667D01*
X4718220Y25590661D01*
X4718218Y25590661D01*
X4667604Y25590617D01*
X4609841Y25590567D01*
X4603044Y25587937D01*
X4603042Y25587937D01*
X4528766Y25559202D01*
X4501962Y25548832D01*
X4497307Y25545149D01*
X4497305Y25545148D01*
X4497141Y25545018D01*
X4481008Y25532254D01*
X4203642Y25254886D01*
X4186774Y25233462D01*
X4145227Y25125511D01*
X4145327Y25009841D01*
X4147958Y25003041D01*
X4149300Y24995867D01*
X4147672Y24995562D01*
X4148582Y24950199D01*
X4114683Y24908115D01*
X4061664Y24897666D01*
X4047612Y24901418D01*
X4032232Y24904269D01*
X3931338Y24904180D01*
X3917235Y24901541D01*
X3821879Y24864650D01*
X3811674Y24858817D01*
X3797219Y24847380D01*
X3793790Y24844328D01*
X3723557Y24774095D01*
X3718757Y24763801D01*
X160000Y24763801D01*
X160000Y26972641D01*
X162040Y26990479D01*
X163106Y26995080D01*
X164114Y26999427D01*
X164115Y27000000D01*
X163121Y27004357D01*
X162625Y27008799D01*
X162990Y27008840D01*
X161660Y27025520D01*
X175165Y27233188D01*
X176493Y27243355D01*
X220737Y27467569D01*
X223370Y27477479D01*
X296285Y27694085D01*
X300180Y27703570D01*
X400535Y27908907D01*
X405626Y27917807D01*
X531725Y28108407D01*
X537926Y28116574D01*
X687655Y28289243D01*
X694861Y28296537D01*
X865687Y28448354D01*
X873777Y28454654D01*
X1045762Y28571476D01*
X1052865Y28574917D01*
X1052763Y28575092D01*
X1060439Y28579590D01*
X1068923Y28582267D01*
X1077581Y28590402D01*
X1090462Y28600226D01*
X6696128Y32027911D01*
X10084783Y32027911D01*
X10100733Y31707518D01*
X10155059Y31391362D01*
X10246973Y31084022D01*
X10375144Y30789951D01*
X10376348Y30787903D01*
X10376351Y30787897D01*
X10536509Y30515460D01*
X10537716Y30513407D01*
X10732333Y30258397D01*
X10733993Y30256693D01*
X10733999Y30256686D01*
X10954510Y30030326D01*
X10956177Y30028615D01*
X10958036Y30027118D01*
X10958040Y30027114D01*
X11022878Y29974890D01*
X11206005Y29827389D01*
X11208032Y29826125D01*
X11476179Y29658892D01*
X11476189Y29658887D01*
X11478199Y29657633D01*
X11480350Y29656628D01*
X11480355Y29656625D01*
X11766659Y29522815D01*
X11768814Y29521808D01*
X11856226Y29493153D01*
X12071372Y29422624D01*
X12071379Y29422622D01*
X12073643Y29421880D01*
X12075983Y29421415D01*
X12075985Y29421414D01*
X12385926Y29359763D01*
X12388269Y29359297D01*
X12708134Y29334966D01*
X12858103Y29341645D01*
X13026234Y29349132D01*
X13026240Y29349133D01*
X13028606Y29349238D01*
X13345043Y29401908D01*
X13411534Y29421414D01*
X13650573Y29491540D01*
X13650574Y29491540D01*
X13652860Y29492211D01*
X13797998Y29554567D01*
X13945413Y29617902D01*
X13945416Y29617904D01*
X13947598Y29618841D01*
X14224989Y29779963D01*
X14350034Y29874362D01*
X14479120Y29971811D01*
X14479124Y29971815D01*
X14481015Y29973242D01*
X14538456Y30028615D01*
X14710252Y30194227D01*
X14710258Y30194233D01*
X14711966Y30195880D01*
X14764406Y30260292D01*
X14912995Y30442806D01*
X14912995Y30442807D01*
X14914497Y30444651D01*
X15085675Y30715952D01*
X15223020Y31005852D01*
X15324543Y31310153D01*
X15340673Y31389080D01*
X15388296Y31622119D01*
X15388772Y31624447D01*
X15414778Y31944181D01*
X15415363Y32000000D01*
X15396059Y32320208D01*
X15391434Y32345534D01*
X15338852Y32633442D01*
X15338851Y32633448D01*
X15338425Y32635778D01*
X15243298Y32942139D01*
X15112054Y33234852D01*
X14946595Y33509678D01*
X14749318Y33762636D01*
X14523080Y33990062D01*
X14271159Y34188661D01*
X14247593Y34203018D01*
X13999237Y34354317D01*
X13999235Y34354318D01*
X13997203Y34355556D01*
X13705181Y34488331D01*
X13702914Y34489048D01*
X13702906Y34489051D01*
X13401587Y34584345D01*
X13401582Y34584346D01*
X13399322Y34585061D01*
X13084059Y34644346D01*
X13081685Y34644502D01*
X13081682Y34644502D01*
X12766328Y34665171D01*
X12766320Y34665171D01*
X12763956Y34665326D01*
X12443651Y34647699D01*
X12127783Y34591719D01*
X12125510Y34591026D01*
X12125509Y34591026D01*
X12103588Y34584345D01*
X11820929Y34498197D01*
X11527532Y34368487D01*
X11251844Y34204470D01*
X10997856Y34008520D01*
X10769249Y33783476D01*
X10767773Y33781623D01*
X10767767Y33781617D01*
X10753984Y33764320D01*
X10569334Y33532598D01*
X10401006Y33259519D01*
X10400012Y33257362D01*
X10400010Y33257359D01*
X10390571Y33236883D01*
X10266705Y32968196D01*
X10168374Y32662849D01*
X10107440Y32347900D01*
X10107273Y32345542D01*
X10107272Y32345534D01*
X10105479Y32320208D01*
X10084783Y32027911D01*
X6696128Y32027911D01*
X11303610Y34845238D01*
X11309604Y34848554D01*
X11314492Y34850988D01*
X11323139Y34853082D01*
X11330020Y34858718D01*
X11336415Y34861901D01*
X11344909Y34867100D01*
X11619231Y34987024D01*
X11626835Y34989891D01*
X11932442Y35087483D01*
X11940310Y35089556D01*
X12254334Y35155197D01*
X12262373Y35156449D01*
X12581472Y35189443D01*
X12589597Y35189862D01*
X12910402Y35189862D01*
X12918527Y35189443D01*
G37*
%TD.AperFunction*%
%TA.AperFunction,Conductor*%
G36*
X14275560Y17994022D02*
G01*
X14276120Y17996656D01*
X14284242Y17994930D01*
X14291827Y17991553D01*
X14317804Y17991553D01*
X14330162Y17990580D01*
X14347611Y17987816D01*
X14347613Y17987816D01*
X14355815Y17986517D01*
X14364562Y17988861D01*
X14385010Y17991553D01*
X14924478Y17991553D01*
X14975258Y17973071D01*
X14980339Y17968415D01*
X15022188Y17926567D01*
X15081228Y17867528D01*
X15104308Y17844448D01*
X15127146Y17795472D01*
X15127447Y17788586D01*
X15127447Y17575287D01*
X15108965Y17524507D01*
X15104308Y17519426D01*
X14945077Y17360195D01*
X14896101Y17337357D01*
X14843903Y17351343D01*
X14823992Y17373165D01*
X14823832Y17373038D01*
X14822029Y17375317D01*
X14820150Y17377692D01*
X14808672Y17392200D01*
X14808670Y17392202D01*
X14807254Y17393992D01*
X14529886Y17671358D01*
X14508462Y17688226D01*
X14400511Y17729773D01*
X14393220Y17729767D01*
X14393218Y17729767D01*
X14342604Y17729723D01*
X14284841Y17729673D01*
X14278041Y17727042D01*
X14270867Y17725700D01*
X14270562Y17727328D01*
X14225199Y17726418D01*
X14183115Y17760317D01*
X14172666Y17813336D01*
X14176418Y17827388D01*
X14179269Y17842768D01*
X14179201Y17919979D01*
X14197639Y17970775D01*
X14244415Y17997836D01*
X14275560Y17994022D01*
G37*
%TD.AperFunction*%
%TA.AperFunction,Conductor*%
G36*
X15300561Y19019027D02*
G01*
X15301120Y19021657D01*
X15309240Y19019931D01*
X15316827Y19016553D01*
X15342803Y19016553D01*
X15355161Y19015580D01*
X15372611Y19012816D01*
X15372613Y19012816D01*
X15380815Y19011517D01*
X15389564Y19013861D01*
X15410009Y19016553D01*
X15949478Y19016553D01*
X16000258Y18998071D01*
X16005339Y18993415D01*
X16047188Y18951567D01*
X16104103Y18894653D01*
X16129308Y18869448D01*
X16152146Y18820472D01*
X16152447Y18813586D01*
X16152447Y18600287D01*
X16133965Y18549507D01*
X16129308Y18544426D01*
X15970077Y18385195D01*
X15921101Y18362357D01*
X15868903Y18376343D01*
X15848992Y18398165D01*
X15848832Y18398038D01*
X15847029Y18400317D01*
X15845150Y18402692D01*
X15833672Y18417200D01*
X15833670Y18417202D01*
X15832254Y18418992D01*
X15554886Y18696358D01*
X15533462Y18713226D01*
X15425511Y18754773D01*
X15418220Y18754767D01*
X15418218Y18754767D01*
X15367604Y18754723D01*
X15309841Y18754673D01*
X15303041Y18752042D01*
X15295867Y18750700D01*
X15295562Y18752328D01*
X15250199Y18751418D01*
X15208115Y18785317D01*
X15197666Y18838336D01*
X15201418Y18852388D01*
X15204269Y18867768D01*
X15204201Y18944979D01*
X15222639Y18995775D01*
X15269415Y19022836D01*
X15300561Y19019027D01*
G37*
%TD.AperFunction*%
%TA.AperFunction,Conductor*%
G36*
X16325561Y20044027D02*
G01*
X16326120Y20046657D01*
X16334240Y20044931D01*
X16341827Y20041553D01*
X16367803Y20041553D01*
X16380161Y20040580D01*
X16397611Y20037816D01*
X16397613Y20037816D01*
X16405815Y20036517D01*
X16414564Y20038861D01*
X16435009Y20041553D01*
X16974478Y20041553D01*
X17025258Y20023071D01*
X17030339Y20018415D01*
X17154308Y19894448D01*
X17177146Y19845472D01*
X17177447Y19838586D01*
X17177447Y19625287D01*
X17158965Y19574507D01*
X17154308Y19569426D01*
X16995077Y19410195D01*
X16946101Y19387357D01*
X16893903Y19401343D01*
X16873992Y19423165D01*
X16873832Y19423038D01*
X16872029Y19425317D01*
X16870150Y19427692D01*
X16858672Y19442200D01*
X16858670Y19442202D01*
X16857254Y19443992D01*
X16579886Y19721358D01*
X16558462Y19738226D01*
X16450511Y19779773D01*
X16443220Y19779767D01*
X16443218Y19779767D01*
X16392604Y19779723D01*
X16334841Y19779673D01*
X16328041Y19777042D01*
X16320867Y19775700D01*
X16320562Y19777328D01*
X16275199Y19776418D01*
X16233115Y19810317D01*
X16222666Y19863336D01*
X16226418Y19877388D01*
X16229269Y19892768D01*
X16229201Y19969979D01*
X16247639Y20020775D01*
X16294415Y20047836D01*
X16325561Y20044027D01*
G37*
%TD.AperFunction*%
%TA.AperFunction,Conductor*%
G36*
X17350561Y21069027D02*
G01*
X17351120Y21071657D01*
X17359240Y21069931D01*
X17366827Y21066553D01*
X17392803Y21066553D01*
X17405161Y21065580D01*
X17422611Y21062816D01*
X17422613Y21062816D01*
X17430815Y21061517D01*
X17439564Y21063861D01*
X17460009Y21066553D01*
X17999478Y21066553D01*
X18050258Y21048071D01*
X18055339Y21043415D01*
X18179308Y20919448D01*
X18202146Y20870472D01*
X18202447Y20863586D01*
X18202447Y20650287D01*
X18183965Y20599507D01*
X18179308Y20594426D01*
X18020077Y20435195D01*
X17971101Y20412357D01*
X17918903Y20426343D01*
X17898992Y20448165D01*
X17898832Y20448038D01*
X17897029Y20450317D01*
X17895150Y20452692D01*
X17883672Y20467200D01*
X17883670Y20467202D01*
X17882254Y20468992D01*
X17604886Y20746358D01*
X17583462Y20763226D01*
X17475511Y20804773D01*
X17468220Y20804767D01*
X17468218Y20804767D01*
X17417604Y20804723D01*
X17359841Y20804673D01*
X17353041Y20802042D01*
X17345867Y20800700D01*
X17345562Y20802328D01*
X17300199Y20801418D01*
X17258115Y20835317D01*
X17247666Y20888336D01*
X17251418Y20902388D01*
X17254269Y20917768D01*
X17254201Y20994979D01*
X17272639Y21045775D01*
X17319415Y21072836D01*
X17350561Y21069027D01*
G37*
%TD.AperFunction*%
%TA.AperFunction,Conductor*%
G36*
X18375561Y22094027D02*
G01*
X18376120Y22096657D01*
X18384240Y22094931D01*
X18391827Y22091553D01*
X18417803Y22091553D01*
X18430161Y22090580D01*
X18447611Y22087816D01*
X18447613Y22087816D01*
X18455815Y22086517D01*
X18464564Y22088861D01*
X18485009Y22091553D01*
X19024478Y22091553D01*
X19075258Y22073071D01*
X19080339Y22068415D01*
X19111622Y22037133D01*
X19180761Y21967995D01*
X19204308Y21944448D01*
X19227146Y21895472D01*
X19227447Y21888586D01*
X19227447Y21675287D01*
X19208965Y21624507D01*
X19204308Y21619426D01*
X19045077Y21460195D01*
X18996101Y21437357D01*
X18943903Y21451343D01*
X18923992Y21473165D01*
X18923832Y21473038D01*
X18922029Y21475317D01*
X18920150Y21477692D01*
X18908672Y21492200D01*
X18908670Y21492202D01*
X18907254Y21493992D01*
X18629886Y21771358D01*
X18608462Y21788226D01*
X18500511Y21829773D01*
X18493220Y21829767D01*
X18493218Y21829767D01*
X18442604Y21829723D01*
X18384841Y21829673D01*
X18378041Y21827042D01*
X18370867Y21825700D01*
X18370562Y21827328D01*
X18325199Y21826418D01*
X18283115Y21860317D01*
X18272666Y21913336D01*
X18276418Y21927388D01*
X18279269Y21942768D01*
X18279201Y22019979D01*
X18297639Y22070775D01*
X18344415Y22097836D01*
X18375561Y22094027D01*
G37*
%TD.AperFunction*%
%TA.AperFunction,Conductor*%
G36*
X19400561Y23119027D02*
G01*
X19401120Y23121657D01*
X19409240Y23119931D01*
X19416827Y23116553D01*
X19442803Y23116553D01*
X19455161Y23115580D01*
X19472611Y23112816D01*
X19472613Y23112816D01*
X19480815Y23111517D01*
X19489564Y23113861D01*
X19510009Y23116553D01*
X20049478Y23116553D01*
X20100258Y23098071D01*
X20105339Y23093415D01*
X20229308Y22969448D01*
X20252146Y22920472D01*
X20252447Y22913586D01*
X20252447Y22700287D01*
X20233965Y22649507D01*
X20229308Y22644426D01*
X20070077Y22485195D01*
X20021101Y22462357D01*
X19968903Y22476343D01*
X19948992Y22498165D01*
X19948832Y22498038D01*
X19947029Y22500317D01*
X19945150Y22502692D01*
X19933672Y22517200D01*
X19933670Y22517202D01*
X19932254Y22518992D01*
X19654886Y22796358D01*
X19633462Y22813226D01*
X19525511Y22854773D01*
X19518220Y22854767D01*
X19518218Y22854767D01*
X19467604Y22854723D01*
X19409841Y22854673D01*
X19403041Y22852042D01*
X19395867Y22850700D01*
X19395562Y22852328D01*
X19350199Y22851418D01*
X19308115Y22885317D01*
X19297666Y22938336D01*
X19301418Y22952388D01*
X19304269Y22967768D01*
X19304201Y23044979D01*
X19322639Y23095775D01*
X19369415Y23122836D01*
X19400561Y23119027D01*
G37*
%TD.AperFunction*%
%TA.AperFunction,Conductor*%
G36*
X20425561Y24144027D02*
G01*
X20426120Y24146657D01*
X20434240Y24144931D01*
X20441827Y24141553D01*
X20467803Y24141553D01*
X20480161Y24140580D01*
X20497611Y24137816D01*
X20497613Y24137816D01*
X20505815Y24136517D01*
X20514564Y24138861D01*
X20535009Y24141553D01*
X21074478Y24141553D01*
X21125258Y24123071D01*
X21130339Y24118415D01*
X21254308Y23994448D01*
X21277146Y23945472D01*
X21277447Y23938586D01*
X21277447Y23725287D01*
X21258965Y23674507D01*
X21254308Y23669426D01*
X21095077Y23510195D01*
X21046101Y23487357D01*
X20993903Y23501343D01*
X20973992Y23523165D01*
X20973832Y23523038D01*
X20972029Y23525317D01*
X20958967Y23541827D01*
X20958672Y23542200D01*
X20958670Y23542202D01*
X20957254Y23543992D01*
X20887409Y23613837D01*
X20681533Y23819711D01*
X20679886Y23821358D01*
X20658462Y23838226D01*
X20550511Y23879773D01*
X20543220Y23879767D01*
X20543218Y23879767D01*
X20492604Y23879723D01*
X20434841Y23879673D01*
X20428041Y23877042D01*
X20420867Y23875700D01*
X20420562Y23877328D01*
X20375199Y23876418D01*
X20333115Y23910317D01*
X20322666Y23963336D01*
X20326418Y23977388D01*
X20329269Y23992768D01*
X20329201Y24069979D01*
X20347639Y24120775D01*
X20394415Y24147836D01*
X20425561Y24144027D01*
G37*
%TD.AperFunction*%
%TD*%
M02*
