%TF.GenerationSoftware,KiCad,Pcbnew,(5.99.0-11748-g24a41559ca)*%
%TF.CreationDate,2021-08-27T16:42:58+03:00*%
%TF.ProjectId,Flux Condenser,466c7578-2043-46f6-9e64-656e7365722e,3A*%
%TF.SameCoordinates,PX7bfa480PY6bc3e40*%
%TF.FileFunction,Paste,Bot*%
%TF.FilePolarity,Positive*%
%FSLAX46Y46*%
G04 Gerber Fmt 4.6, Leading zero omitted, Abs format (unit mm)*
G04 Created by KiCad (PCBNEW (5.99.0-11748-g24a41559ca)) date 2021-08-27 16:42:58*
%MOMM*%
%LPD*%
G01*
G04 APERTURE LIST*
G04 Aperture macros list*
%AMRoundRect*
0 Rectangle with rounded corners*
0 $1 Rounding radius*
0 $2 $3 $4 $5 $6 $7 $8 $9 X,Y pos of 4 corners*
0 Add a 4 corners polygon primitive as box body*
4,1,4,$2,$3,$4,$5,$6,$7,$8,$9,$2,$3,0*
0 Add four circle primitives for the rounded corners*
1,1,$1+$1,$2,$3*
1,1,$1+$1,$4,$5*
1,1,$1+$1,$6,$7*
1,1,$1+$1,$8,$9*
0 Add four rect primitives between the rounded corners*
20,1,$1+$1,$2,$3,$4,$5,0*
20,1,$1+$1,$4,$5,$6,$7,0*
20,1,$1+$1,$6,$7,$8,$9,0*
20,1,$1+$1,$8,$9,$2,$3,0*%
%AMFreePoly0*
4,1,15,0.385355,0.085355,0.400000,0.050000,0.400000,0.000711,0.399705,0.000000,0.385355,-0.034644,0.334644,-0.085355,0.299289,-0.100000,-0.350000,-0.100000,-0.385355,-0.085355,-0.400000,-0.050000,-0.400000,0.050000,-0.385355,0.085355,-0.350000,0.100000,0.350000,0.100000,0.385355,0.085355,0.385355,0.085355,$1*%
%AMFreePoly1*
4,1,14,0.334644,0.085355,0.385355,0.034644,0.400000,-0.000711,0.400000,-0.050000,0.385355,-0.085355,0.350000,-0.100000,-0.350000,-0.100000,-0.385355,-0.085355,-0.400000,-0.050000,-0.400000,0.050000,-0.385355,0.085355,-0.350000,0.100000,0.299289,0.100000,0.334644,0.085355,0.334644,0.085355,$1*%
%AMFreePoly2*
4,1,14,0.085355,0.385355,0.100000,0.350000,0.100000,-0.350000,0.085355,-0.385355,0.050000,-0.400000,0.000711,-0.400000,-0.034644,-0.385355,-0.085355,-0.334644,-0.100000,-0.299289,-0.100000,0.350000,-0.085355,0.385355,-0.050000,0.400000,0.050000,0.400000,0.085355,0.385355,0.085355,0.385355,$1*%
%AMFreePoly3*
4,1,15,0.085355,0.385355,0.100000,0.350000,0.100000,-0.299289,0.099705,-0.300000,0.085355,-0.334644,0.034644,-0.385355,-0.000711,-0.400000,-0.050000,-0.400000,-0.085355,-0.385355,-0.100000,-0.350000,-0.100000,0.350000,-0.085355,0.385355,-0.050000,0.400000,0.050000,0.400000,0.085355,0.385355,0.085355,0.385355,$1*%
%AMFreePoly4*
4,1,14,0.385355,0.085355,0.400000,0.050000,0.400000,-0.050000,0.385355,-0.085355,0.350000,-0.100000,-0.350000,-0.100000,-0.385355,-0.085355,-0.400000,-0.050000,-0.400000,-0.000711,-0.385355,0.034644,-0.334644,0.085355,-0.299289,0.100000,0.350000,0.100000,0.385355,0.085355,0.385355,0.085355,$1*%
%AMFreePoly5*
4,1,14,0.385355,0.085355,0.400000,0.050000,0.400000,-0.050000,0.385355,-0.085355,0.350000,-0.100000,-0.299289,-0.100000,-0.334644,-0.085355,-0.385355,-0.034644,-0.400000,0.000711,-0.400000,0.050000,-0.385355,0.085355,-0.350000,0.100000,0.350000,0.100000,0.385355,0.085355,0.385355,0.085355,$1*%
%AMFreePoly6*
4,1,14,0.034644,0.385355,0.085355,0.334644,0.100000,0.299289,0.100000,-0.350000,0.085355,-0.385355,0.050000,-0.400000,-0.050000,-0.400000,-0.085355,-0.385355,-0.100000,-0.350000,-0.100000,0.350000,-0.085355,0.385355,-0.050000,0.400000,-0.000711,0.400000,0.034644,0.385355,0.034644,0.385355,$1*%
%AMFreePoly7*
4,1,14,0.085355,0.385355,0.100000,0.350000,0.100000,-0.350000,0.085355,-0.385355,0.050000,-0.400000,-0.050000,-0.400000,-0.085355,-0.385355,-0.100000,-0.350000,-0.100000,0.299289,-0.085355,0.334644,-0.034644,0.385355,0.000711,0.400000,0.050000,0.400000,0.085355,0.385355,0.085355,0.385355,$1*%
G04 Aperture macros list end*
%ADD10RoundRect,0.550000X0.550000X2.550000X-0.550000X2.550000X-0.550000X-2.550000X0.550000X-2.550000X0*%
%ADD11C,2.000000*%
%ADD12RoundRect,0.172500X-0.172500X0.172500X-0.172500X-0.172500X0.172500X-0.172500X0.172500X0.172500X0*%
%ADD13FreePoly0,270.000000*%
%ADD14RoundRect,0.050000X-0.050000X0.350000X-0.050000X-0.350000X0.050000X-0.350000X0.050000X0.350000X0*%
%ADD15FreePoly1,270.000000*%
%ADD16FreePoly2,270.000000*%
%ADD17RoundRect,0.050000X-0.350000X0.050000X-0.350000X-0.050000X0.350000X-0.050000X0.350000X0.050000X0*%
%ADD18FreePoly3,270.000000*%
%ADD19FreePoly4,270.000000*%
%ADD20FreePoly5,270.000000*%
%ADD21FreePoly6,270.000000*%
%ADD22FreePoly7,270.000000*%
%ADD23RoundRect,0.250000X0.375000X0.250000X-0.375000X0.250000X-0.375000X-0.250000X0.375000X-0.250000X0*%
%ADD24RoundRect,0.135000X-0.185000X0.135000X-0.185000X-0.135000X0.185000X-0.135000X0.185000X0.135000X0*%
%ADD25RoundRect,0.200000X-0.200000X0.300000X-0.200000X-0.300000X0.200000X-0.300000X0.200000X0.300000X0*%
%ADD26RoundRect,0.150000X-0.350000X0.150000X-0.350000X-0.150000X0.350000X-0.150000X0.350000X0.150000X0*%
%ADD27RoundRect,0.135000X0.135000X0.185000X-0.135000X0.185000X-0.135000X-0.185000X0.135000X-0.185000X0*%
%ADD28RoundRect,0.140000X0.140000X0.160000X-0.140000X0.160000X-0.140000X-0.160000X0.140000X-0.160000X0*%
G04 APERTURE END LIST*
D10*
%TO.C,BT1*%
X23875000Y10100000D03*
X1625000Y10100000D03*
D11*
X10250000Y7850000D03*
X14000000Y10100000D03*
X11500000Y10100000D03*
X15250000Y7850000D03*
X12750000Y12350000D03*
X15250000Y12350000D03*
X10250000Y12350000D03*
X16500000Y10100000D03*
X12750000Y7850000D03*
X9000000Y10100000D03*
%TD*%
D12*
%TO.C,U1*%
X3785000Y19235000D03*
X3785000Y20085000D03*
X2935000Y20085000D03*
X2935000Y19235000D03*
D13*
X2560000Y21110000D03*
D14*
X2960000Y21110000D03*
X3360000Y21110000D03*
X3760000Y21110000D03*
D15*
X4160000Y21110000D03*
D16*
X4810000Y20460000D03*
D17*
X4810000Y20060000D03*
X4810000Y19660000D03*
X4810000Y19260000D03*
D18*
X4810000Y18860000D03*
D19*
X4160000Y18210000D03*
D14*
X3760000Y18210000D03*
X3360000Y18210000D03*
X2960000Y18210000D03*
D20*
X2560000Y18210000D03*
D21*
X1910000Y18860000D03*
D17*
X1910000Y19260000D03*
X1910000Y19660000D03*
X1910000Y20060000D03*
D22*
X1910000Y20460000D03*
%TD*%
D23*
%TO.C,SW2*%
X5385000Y27000000D03*
X1335000Y27000000D03*
X5385000Y25500000D03*
X1335000Y25500000D03*
%TD*%
D24*
%TO.C,R2*%
X20060000Y22110000D03*
X20060000Y21090000D03*
%TD*%
D25*
%TO.C,SW1*%
X22820000Y19100000D03*
X22820000Y25100000D03*
D26*
X21320000Y23100000D03*
X21320000Y22100000D03*
X21320000Y21100000D03*
%TD*%
D27*
%TO.C,R1*%
X3870000Y23580000D03*
X2850000Y23580000D03*
%TD*%
D28*
%TO.C,C1*%
X3840000Y22460000D03*
X2880000Y22460000D03*
%TD*%
M02*
