M48
; DRILL file {KiCad (5.99.0-11748-g24a41559ca)} date Friday, August 27, 2021 at 04:43:00 PM
; FORMAT={-:-/ absolute / metric / decimal}
; #@! TF.CreationDate,2021-08-27T16:43:00+03:00
; #@! TF.GenerationSoftware,Kicad,Pcbnew,(5.99.0-11748-g24a41559ca)
; #@! TF.FileFunction,MixedPlating,1,2
FMAT,2
METRIC
; #@! TA.AperFunction,Plated,PTH,ViaDrill
T1C0.300
; #@! TA.AperFunction,Plated,PTH,ComponentDrill
T2C0.500
; #@! TA.AperFunction,Plated,PTH,ComponentDrill
T3C2.500
%
G90
G05
T1
X4.83Y24.21
X5.854Y23.185
X6.874Y22.16
X7.899Y21.135
X8.924Y20.11
X9.949Y19.08
X10.984Y18.055
X12.53Y16.91
X12.547Y17.893
X14.833Y17.743
X15.858Y18.768
X16.883Y19.793
X17.908Y20.818
X18.933Y21.843
X19.958Y22.868
X20.983Y23.893
T2
X10.875Y32.0
X11.424Y33.326
X11.424Y30.674
X12.75Y33.875
X12.75Y30.125
X14.076Y33.326
X14.076Y30.674
X14.625Y32.0
T3
X12.75Y32.0
T0
M30
